M48
; DRILL file KiCad 10.0.1 date 2026-09-14T17:58:00
; FORMAT={-:-/ absolute / metric / decimal}
; #@! TF.CreationDate,2026-09-14T17:58:00+03:00
; #@! TF.GenerationSoftware,Kicad,Pcbnew,10.0.1
; #@! TF.FileFunction,Plated,1,2,PTH
FMAT,2
METRIC
; #@! TA.AperFunction,Plated,PTH,ComponentDrill
T1C1.000
; #@! TA.AperFunction,Plated,PTH,ComponentDrill
T2C1.100
; #@! TA.AperFunction,Plated,PTH,ComponentDrill
T3C1.500
%
G90
G05
T1
X160.144Y-90.47
X160.144Y-93.01
X160.144Y-95.55
X160.144Y-98.09
X160.144Y-100.63
X160.144Y-103.17
X160.144Y-105.71
X160.144Y-108.25
X160.144Y-110.79
X160.144Y-113.33
X161.25Y-124.625
X161.25Y-139.125
X162.684Y-90.47
X162.684Y-93.01
X162.684Y-95.55
X162.684Y-98.09
X162.684Y-100.63
X162.684Y-103.17
X162.684Y-105.71
X162.684Y-108.25
X162.684Y-110.79
X162.684Y-113.33
X163.75Y-124.625
X166.25Y-124.625
X166.25Y-139.125
X169.234Y-52.25
X171.774Y-52.25
X174.314Y-52.25
X176.854Y-52.25
X179.394Y-52.25
X180.244Y-63.196
X180.244Y-65.736
X180.244Y-68.276
X181.934Y-52.25
X184.474Y-52.25
X187.014Y-52.25
T2
X204.684Y-129.25
X204.684Y-133.75
X209.934Y-114.25
X209.934Y-118.75
X211.184Y-129.25
X211.184Y-133.75
X216.434Y-114.25
X216.434Y-118.75
T3
G00X158.15Y-131.475
M15
G01X158.15Y-132.775
M16
G05
G00X169.35Y-131.475
M15
G01X169.35Y-132.775
M16
G05
M30
