ISO-10303-21;
HEADER;
/* Generated by software containing ST-Developer
 * from STEP Tools, Inc. (www.steptools.com) 
 */

FILE_DESCRIPTION(
/* description */ ('KiCad electronic assembly'),
/* implementation_level */ '2;1');

FILE_NAME(
/* name */ 'case files step.step',
/* time_stamp */ '2026-09-16T10:19:06+03:00',
/* author */ (''),
/* organization */ (''),
/* preprocessor_version */ 'ST-DEVELOPER v20.1',
/* originating_system */ 'Autodesk Translation Framework v15.8.0.0',
/* authorisation */ '');

FILE_SCHEMA (('AUTOMOTIVE_DESIGN { 1 0 10303 214 3 1 1 }'));
ENDSEC;

DATA;
#10=MECHANICAL_DESIGN_GEOMETRIC_PRESENTATION_REPRESENTATION('',(#17,#18,
#19),#1789);
#11=SHAPE_REPRESENTATION_RELATIONSHIP('SRR','None',#1799,#12);
#12=ADVANCED_BREP_SHAPE_REPRESENTATION('',(#20,#21,#22),#1787);
#13=ITEM_DEFINED_TRANSFORMATION($,$,#1083,#1181);
#14=(
REPRESENTATION_RELATIONSHIP($,$,#1800,#1799)
REPRESENTATION_RELATIONSHIP_WITH_TRANSFORMATION(#13)
SHAPE_REPRESENTATION_RELATIONSHIP()
);
#15=CONTEXT_DEPENDENT_SHAPE_REPRESENTATION(#14,#1798);
#16=NEXT_ASSEMBLY_USAGE_OCCURRENCE('PinHeader_2x10_P2.54mm_Vertical:1',
'PinHeader_2x10_P2.54mm_Vertical:1','PinHeader_2x10_P2.54mm_Vertical:1',
#1802,#1803,'PinHeader_2x10_P2.54mm_Vertical:1');
#17=STYLED_ITEM('',(#1813),#20);
#18=STYLED_ITEM('',(#1813),#21);
#19=STYLED_ITEM('',(#1813),#22);
#20=MANIFOLD_SOLID_BREP('Body1',#1067);
#21=MANIFOLD_SOLID_BREP('Body3',#1068);
#22=MANIFOLD_SOLID_BREP('Body2',#1069);
#23=FACE_BOUND('',#188,.T.);
#24=FACE_BOUND('',#191,.T.);
#25=FACE_BOUND('',#194,.T.);
#26=FACE_BOUND('',#195,.T.);
#27=FACE_BOUND('',#196,.T.);
#28=FACE_BOUND('',#197,.T.);
#29=FACE_BOUND('',#198,.T.);
#30=FACE_BOUND('',#221,.T.);
#31=FACE_BOUND('',#222,.T.);
#32=FACE_BOUND('',#223,.T.);
#33=FACE_BOUND('',#224,.T.);
#34=FACE_BOUND('',#225,.T.);
#35=FACE_BOUND('',#227,.T.);
#36=FACE_BOUND('',#237,.T.);
#37=FACE_BOUND('',#238,.T.);
#38=FACE_BOUND('',#239,.T.);
#39=FACE_BOUND('',#240,.T.);
#40=FACE_BOUND('',#242,.T.);
#41=FACE_BOUND('',#243,.T.);
#42=FACE_BOUND('',#244,.T.);
#43=FACE_BOUND('',#245,.T.);
#44=PLANE('',#1095);
#45=PLANE('',#1099);
#46=PLANE('',#1103);
#47=PLANE('',#1107);
#48=PLANE('',#1111);
#49=PLANE('',#1115);
#50=PLANE('',#1119);
#51=PLANE('',#1123);
#52=PLANE('',#1124);
#53=PLANE('',#1125);
#54=PLANE('',#1126);
#55=PLANE('',#1127);
#56=PLANE('',#1128);
#57=PLANE('',#1129);
#58=PLANE('',#1130);
#59=PLANE('',#1131);
#60=PLANE('',#1132);
#61=PLANE('',#1133);
#62=PLANE('',#1134);
#63=PLANE('',#1135);
#64=PLANE('',#1136);
#65=PLANE('',#1140);
#66=PLANE('',#1144);
#67=PLANE('',#1148);
#68=PLANE('',#1152);
#69=PLANE('',#1153);
#70=PLANE('',#1154);
#71=PLANE('',#1155);
#72=PLANE('',#1156);
#73=PLANE('',#1157);
#74=PLANE('',#1158);
#75=PLANE('',#1159);
#76=PLANE('',#1160);
#77=PLANE('',#1161);
#78=PLANE('',#1162);
#79=PLANE('',#1175);
#80=PLANE('',#1176);
#81=PLANE('',#1177);
#82=PLANE('',#1178);
#83=PLANE('',#1179);
#84=PLANE('',#1180);
#85=CYLINDRICAL_SURFACE('',#1086,0.8115);
#86=CYLINDRICAL_SURFACE('',#1090,0.8115);
#87=CYLINDRICAL_SURFACE('',#1092,4.60977229733739);
#88=CYLINDRICAL_SURFACE('',#1096,3.06323915006042);
#89=CYLINDRICAL_SURFACE('',#1100,3.19818925249123);
#90=CYLINDRICAL_SURFACE('',#1104,4.08005426885074);
#91=CYLINDRICAL_SURFACE('',#1108,1.2645);
#92=CYLINDRICAL_SURFACE('',#1112,1.2645);
#93=CYLINDRICAL_SURFACE('',#1116,1.2645);
#94=CYLINDRICAL_SURFACE('',#1120,1.2645);
#95=CYLINDRICAL_SURFACE('',#1137,0.8115);
#96=CYLINDRICAL_SURFACE('',#1141,0.8115);
#97=CYLINDRICAL_SURFACE('',#1145,0.8115);
#98=CYLINDRICAL_SURFACE('',#1149,0.8115);
#99=CYLINDRICAL_SURFACE('',#1163,1.2645);
#100=CYLINDRICAL_SURFACE('',#1166,1.2645);
#101=CYLINDRICAL_SURFACE('',#1169,1.2645);
#102=CYLINDRICAL_SURFACE('',#1172,1.2645);
#103=FACE_OUTER_BOUND('',#164,.T.);
#104=FACE_OUTER_BOUND('',#165,.T.);
#105=FACE_OUTER_BOUND('',#166,.T.);
#106=FACE_OUTER_BOUND('',#167,.T.);
#107=FACE_OUTER_BOUND('',#168,.T.);
#108=FACE_OUTER_BOUND('',#169,.T.);
#109=FACE_OUTER_BOUND('',#170,.T.);
#110=FACE_OUTER_BOUND('',#171,.T.);
#111=FACE_OUTER_BOUND('',#172,.T.);
#112=FACE_OUTER_BOUND('',#173,.T.);
#113=FACE_OUTER_BOUND('',#174,.T.);
#114=FACE_OUTER_BOUND('',#175,.T.);
#115=FACE_OUTER_BOUND('',#176,.T.);
#116=FACE_OUTER_BOUND('',#177,.T.);
#117=FACE_OUTER_BOUND('',#178,.T.);
#118=FACE_OUTER_BOUND('',#179,.T.);
#119=FACE_OUTER_BOUND('',#180,.T.);
#120=FACE_OUTER_BOUND('',#181,.T.);
#121=FACE_OUTER_BOUND('',#182,.T.);
#122=FACE_OUTER_BOUND('',#183,.T.);
#123=FACE_OUTER_BOUND('',#184,.T.);
#124=FACE_OUTER_BOUND('',#185,.T.);
#125=FACE_OUTER_BOUND('',#186,.T.);
#126=FACE_OUTER_BOUND('',#187,.T.);
#127=FACE_OUTER_BOUND('',#189,.T.);
#128=FACE_OUTER_BOUND('',#190,.T.);
#129=FACE_OUTER_BOUND('',#192,.T.);
#130=FACE_OUTER_BOUND('',#193,.T.);
#131=FACE_OUTER_BOUND('',#199,.T.);
#132=FACE_OUTER_BOUND('',#200,.T.);
#133=FACE_OUTER_BOUND('',#201,.T.);
#134=FACE_OUTER_BOUND('',#202,.T.);
#135=FACE_OUTER_BOUND('',#203,.T.);
#136=FACE_OUTER_BOUND('',#204,.T.);
#137=FACE_OUTER_BOUND('',#205,.T.);
#138=FACE_OUTER_BOUND('',#206,.T.);
#139=FACE_OUTER_BOUND('',#207,.T.);
#140=FACE_OUTER_BOUND('',#208,.T.);
#141=FACE_OUTER_BOUND('',#209,.T.);
#142=FACE_OUTER_BOUND('',#210,.T.);
#143=FACE_OUTER_BOUND('',#211,.T.);
#144=FACE_OUTER_BOUND('',#212,.T.);
#145=FACE_OUTER_BOUND('',#213,.T.);
#146=FACE_OUTER_BOUND('',#214,.T.);
#147=FACE_OUTER_BOUND('',#215,.T.);
#148=FACE_OUTER_BOUND('',#216,.T.);
#149=FACE_OUTER_BOUND('',#217,.T.);
#150=FACE_OUTER_BOUND('',#218,.T.);
#151=FACE_OUTER_BOUND('',#219,.T.);
#152=FACE_OUTER_BOUND('',#220,.T.);
#153=FACE_OUTER_BOUND('',#226,.T.);
#154=FACE_OUTER_BOUND('',#228,.T.);
#155=FACE_OUTER_BOUND('',#229,.T.);
#156=FACE_OUTER_BOUND('',#230,.T.);
#157=FACE_OUTER_BOUND('',#231,.T.);
#158=FACE_OUTER_BOUND('',#232,.T.);
#159=FACE_OUTER_BOUND('',#233,.T.);
#160=FACE_OUTER_BOUND('',#234,.T.);
#161=FACE_OUTER_BOUND('',#235,.T.);
#162=FACE_OUTER_BOUND('',#236,.T.);
#163=FACE_OUTER_BOUND('',#241,.T.);
#164=EDGE_LOOP('',(#724,#725,#726));
#165=EDGE_LOOP('',(#727,#728,#729,#730));
#166=EDGE_LOOP('',(#731,#732,#733));
#167=EDGE_LOOP('',(#734,#735,#736,#737));
#168=EDGE_LOOP('',(#738,#739,#740,#741));
#169=EDGE_LOOP('',(#742,#743,#744,#745,#746,#747,#748,#749,#750,#751));
#170=EDGE_LOOP('',(#752,#753,#754,#755));
#171=EDGE_LOOP('',(#756,#757,#758,#759,#760,#761,#762,#763,#764,#765));
#172=EDGE_LOOP('',(#766,#767,#768,#769));
#173=EDGE_LOOP('',(#770,#771,#772,#773,#774,#775,#776,#777));
#174=EDGE_LOOP('',(#778,#779,#780,#781));
#175=EDGE_LOOP('',(#782,#783,#784,#785,#786,#787,#788,#789));
#176=EDGE_LOOP('',(#790,#791,#792,#793));
#177=EDGE_LOOP('',(#794));
#178=EDGE_LOOP('',(#795,#796,#797,#798));
#179=EDGE_LOOP('',(#799));
#180=EDGE_LOOP('',(#800,#801,#802,#803));
#181=EDGE_LOOP('',(#804));
#182=EDGE_LOOP('',(#805,#806,#807,#808));
#183=EDGE_LOOP('',(#809));
#184=EDGE_LOOP('',(#810,#811,#812,#813));
#185=EDGE_LOOP('',(#814,#815,#816,#817));
#186=EDGE_LOOP('',(#818,#819,#820,#821,#822,#823,#824,#825));
#187=EDGE_LOOP('',(#826,#827,#828));
#188=EDGE_LOOP('',(#829));
#189=EDGE_LOOP('',(#830,#831,#832));
#190=EDGE_LOOP('',(#833,#834,#835));
#191=EDGE_LOOP('',(#836));
#192=EDGE_LOOP('',(#837,#838,#839));
#193=EDGE_LOOP('',(#840,#841,#842,#843));
#194=EDGE_LOOP('',(#844,#845,#846,#847,#848,#849,#850,#851));
#195=EDGE_LOOP('',(#852));
#196=EDGE_LOOP('',(#853));
#197=EDGE_LOOP('',(#854));
#198=EDGE_LOOP('',(#855));
#199=EDGE_LOOP('',(#856,#857,#858,#859));
#200=EDGE_LOOP('',(#860,#861,#862,#863,#864,#865));
#201=EDGE_LOOP('',(#866,#867,#868,#869));
#202=EDGE_LOOP('',(#870,#871,#872,#873,#874,#875));
#203=EDGE_LOOP('',(#876,#877,#878,#879,#880,#881,#882,#883));
#204=EDGE_LOOP('',(#884,#885,#886,#887));
#205=EDGE_LOOP('',(#888));
#206=EDGE_LOOP('',(#889,#890,#891,#892));
#207=EDGE_LOOP('',(#893));
#208=EDGE_LOOP('',(#894,#895,#896,#897));
#209=EDGE_LOOP('',(#898));
#210=EDGE_LOOP('',(#899,#900,#901,#902));
#211=EDGE_LOOP('',(#903));
#212=EDGE_LOOP('',(#904,#905,#906,#907));
#213=EDGE_LOOP('',(#908,#909,#910,#911));
#214=EDGE_LOOP('',(#912,#913,#914,#915));
#215=EDGE_LOOP('',(#916,#917,#918,#919));
#216=EDGE_LOOP('',(#920,#921,#922,#923));
#217=EDGE_LOOP('',(#924,#925,#926,#927));
#218=EDGE_LOOP('',(#928,#929,#930,#931));
#219=EDGE_LOOP('',(#932,#933,#934,#935));
#220=EDGE_LOOP('',(#936,#937,#938,#939));
#221=EDGE_LOOP('',(#940,#941,#942,#943));
#222=EDGE_LOOP('',(#944));
#223=EDGE_LOOP('',(#945));
#224=EDGE_LOOP('',(#946));
#225=EDGE_LOOP('',(#947));
#226=EDGE_LOOP('',(#948,#949,#950,#951));
#227=EDGE_LOOP('',(#952,#953,#954,#955));
#228=EDGE_LOOP('',(#956,#957,#958,#959));
#229=EDGE_LOOP('',(#960,#961,#962,#963));
#230=EDGE_LOOP('',(#964,#965,#966,#967));
#231=EDGE_LOOP('',(#968,#969,#970,#971));
#232=EDGE_LOOP('',(#972,#973,#974,#975));
#233=EDGE_LOOP('',(#976,#977,#978,#979));
#234=EDGE_LOOP('',(#980,#981,#982,#983));
#235=EDGE_LOOP('',(#984,#985,#986,#987));
#236=EDGE_LOOP('',(#988,#989,#990,#991));
#237=EDGE_LOOP('',(#992));
#238=EDGE_LOOP('',(#993));
#239=EDGE_LOOP('',(#994));
#240=EDGE_LOOP('',(#995));
#241=EDGE_LOOP('',(#996,#997,#998,#999));
#242=EDGE_LOOP('',(#1000));
#243=EDGE_LOOP('',(#1001));
#244=EDGE_LOOP('',(#1002));
#245=EDGE_LOOP('',(#1003));
#246=LINE('',#1492,#350);
#247=LINE('',#1496,#351);
#248=LINE('',#1501,#352);
#249=LINE('',#1505,#353);
#250=LINE('',#1511,#354);
#251=LINE('',#1514,#355);
#252=LINE('',#1517,#356);
#253=LINE('',#1519,#357);
#254=LINE('',#1521,#358);
#255=LINE('',#1523,#359);
#256=LINE('',#1525,#360);
#257=LINE('',#1527,#361);
#258=LINE('',#1529,#362);
#259=LINE('',#1531,#363);
#260=LINE('',#1532,#364);
#261=LINE('',#1538,#365);
#262=LINE('',#1541,#366);
#263=LINE('',#1544,#367);
#264=LINE('',#1546,#368);
#265=LINE('',#1548,#369);
#266=LINE('',#1550,#370);
#267=LINE('',#1552,#371);
#268=LINE('',#1554,#372);
#269=LINE('',#1556,#373);
#270=LINE('',#1558,#374);
#271=LINE('',#1559,#375);
#272=LINE('',#1565,#376);
#273=LINE('',#1567,#377);
#274=LINE('',#1568,#378);
#275=LINE('',#1569,#379);
#276=LINE('',#1570,#380);
#277=LINE('',#1576,#381);
#278=LINE('',#1578,#382);
#279=LINE('',#1579,#383);
#280=LINE('',#1580,#384);
#281=LINE('',#1581,#385);
#282=LINE('',#1586,#386);
#283=LINE('',#1593,#387);
#284=LINE('',#1600,#388);
#285=LINE('',#1607,#389);
#286=LINE('',#1612,#390);
#287=LINE('',#1614,#391);
#288=LINE('',#1615,#392);
#289=LINE('',#1618,#393);
#290=LINE('',#1620,#394);
#291=LINE('',#1621,#395);
#292=LINE('',#1624,#396);
#293=LINE('',#1626,#397);
#294=LINE('',#1627,#398);
#295=LINE('',#1635,#399);
#296=LINE('',#1637,#400);
#297=LINE('',#1639,#401);
#298=LINE('',#1640,#402);
#299=LINE('',#1642,#403);
#300=LINE('',#1643,#404);
#301=LINE('',#1646,#405);
#302=LINE('',#1647,#406);
#303=LINE('',#1650,#407);
#304=LINE('',#1651,#408);
#305=LINE('',#1653,#409);
#306=LINE('',#1659,#410);
#307=LINE('',#1666,#411);
#308=LINE('',#1673,#412);
#309=LINE('',#1680,#413);
#310=LINE('',#1686,#414);
#311=LINE('',#1688,#415);
#312=LINE('',#1690,#416);
#313=LINE('',#1691,#417);
#314=LINE('',#1694,#418);
#315=LINE('',#1696,#419);
#316=LINE('',#1697,#420);
#317=LINE('',#1700,#421);
#318=LINE('',#1702,#422);
#319=LINE('',#1703,#423);
#320=LINE('',#1705,#424);
#321=LINE('',#1706,#425);
#322=LINE('',#1710,#426);
#323=LINE('',#1712,#427);
#324=LINE('',#1714,#428);
#325=LINE('',#1715,#429);
#326=LINE('',#1718,#430);
#327=LINE('',#1720,#431);
#328=LINE('',#1721,#432);
#329=LINE('',#1724,#433);
#330=LINE('',#1726,#434);
#331=LINE('',#1727,#435);
#332=LINE('',#1729,#436);
#333=LINE('',#1730,#437);
#334=LINE('',#1737,#438);
#335=LINE('',#1743,#439);
#336=LINE('',#1749,#440);
#337=LINE('',#1755,#441);
#338=LINE('',#1760,#442);
#339=LINE('',#1762,#443);
#340=LINE('',#1764,#444);
#341=LINE('',#1765,#445);
#342=LINE('',#1768,#446);
#343=LINE('',#1770,#447);
#344=LINE('',#1771,#448);
#345=LINE('',#1774,#449);
#346=LINE('',#1776,#450);
#347=LINE('',#1777,#451);
#348=LINE('',#1779,#452);
#349=LINE('',#1780,#453);
#350=VECTOR('',#1190,0.40575);
#351=VECTOR('',#1195,0.8115);
#352=VECTOR('',#1200,0.40575);
#353=VECTOR('',#1205,0.8115);
#354=VECTOR('',#1210,10.);
#355=VECTOR('',#1213,10.);
#356=VECTOR('',#1216,10.);
#357=VECTOR('',#1217,10.);
#358=VECTOR('',#1218,10.);
#359=VECTOR('',#1219,10.);
#360=VECTOR('',#1220,10.);
#361=VECTOR('',#1221,10.);
#362=VECTOR('',#1222,10.);
#363=VECTOR('',#1223,10.);
#364=VECTOR('',#1224,10.);
#365=VECTOR('',#1229,10.);
#366=VECTOR('',#1232,10.);
#367=VECTOR('',#1235,10.);
#368=VECTOR('',#1236,10.);
#369=VECTOR('',#1237,10.);
#370=VECTOR('',#1238,10.);
#371=VECTOR('',#1239,10.);
#372=VECTOR('',#1240,10.);
#373=VECTOR('',#1241,10.);
#374=VECTOR('',#1242,10.);
#375=VECTOR('',#1243,10.);
#376=VECTOR('',#1250,10.);
#377=VECTOR('',#1253,10.);
#378=VECTOR('',#1254,10.);
#379=VECTOR('',#1255,10.);
#380=VECTOR('',#1256,10.);
#381=VECTOR('',#1263,10.);
#382=VECTOR('',#1266,10.);
#383=VECTOR('',#1267,10.);
#384=VECTOR('',#1268,10.);
#385=VECTOR('',#1269,10.);
#386=VECTOR('',#1274,1.5);
#387=VECTOR('',#1283,1.5);
#388=VECTOR('',#1292,1.50000000000002);
#389=VECTOR('',#1301,1.49999999999999);
#390=VECTOR('',#1308,10.);
#391=VECTOR('',#1309,10.);
#392=VECTOR('',#1310,10.);
#393=VECTOR('',#1313,10.);
#394=VECTOR('',#1314,10.);
#395=VECTOR('',#1315,10.);
#396=VECTOR('',#1318,10.);
#397=VECTOR('',#1319,10.);
#398=VECTOR('',#1320,10.);
#399=VECTOR('',#1331,10.);
#400=VECTOR('',#1332,10.);
#401=VECTOR('',#1333,10.);
#402=VECTOR('',#1334,10.);
#403=VECTOR('',#1337,10.);
#404=VECTOR('',#1338,10.);
#405=VECTOR('',#1341,10.);
#406=VECTOR('',#1342,10.);
#407=VECTOR('',#1345,10.);
#408=VECTOR('',#1346,10.);
#409=VECTOR('',#1349,10.);
#410=VECTOR('',#1356,1.00000000000001);
#411=VECTOR('',#1365,0.999999999999979);
#412=VECTOR('',#1374,1.00000000000001);
#413=VECTOR('',#1383,0.999999999999979);
#414=VECTOR('',#1390,10.);
#415=VECTOR('',#1391,10.);
#416=VECTOR('',#1392,10.);
#417=VECTOR('',#1393,10.);
#418=VECTOR('',#1396,10.);
#419=VECTOR('',#1397,10.);
#420=VECTOR('',#1398,10.);
#421=VECTOR('',#1401,10.);
#422=VECTOR('',#1402,10.);
#423=VECTOR('',#1403,10.);
#424=VECTOR('',#1406,10.);
#425=VECTOR('',#1407,10.);
#426=VECTOR('',#1410,10.);
#427=VECTOR('',#1411,10.);
#428=VECTOR('',#1412,10.);
#429=VECTOR('',#1413,10.);
#430=VECTOR('',#1416,10.);
#431=VECTOR('',#1417,10.);
#432=VECTOR('',#1418,10.);
#433=VECTOR('',#1421,10.);
#434=VECTOR('',#1422,10.);
#435=VECTOR('',#1423,10.);
#436=VECTOR('',#1426,10.);
#437=VECTOR('',#1427,10.);
#438=VECTOR('',#1436,1.5);
#439=VECTOR('',#1443,1.5);
#440=VECTOR('',#1450,1.50000000000002);
#441=VECTOR('',#1457,1.49999999999999);
#442=VECTOR('',#1462,10.);
#443=VECTOR('',#1463,10.);
#444=VECTOR('',#1464,10.);
#445=VECTOR('',#1465,10.);
#446=VECTOR('',#1468,10.);
#447=VECTOR('',#1469,10.);
#448=VECTOR('',#1470,10.);
#449=VECTOR('',#1473,10.);
#450=VECTOR('',#1474,10.);
#451=VECTOR('',#1475,10.);
#452=VECTOR('',#1478,10.);
#453=VECTOR('',#1479,10.);
#454=CIRCLE('',#1085,0.8115);
#455=CIRCLE('',#1087,0.8115);
#456=CIRCLE('',#1089,0.8115);
#457=CIRCLE('',#1091,0.8115);
#458=CIRCLE('',#1093,4.60977229733739);
#459=CIRCLE('',#1094,4.60977229733739);
#460=CIRCLE('',#1097,3.06323915006042);
#461=CIRCLE('',#1098,3.06323915006042);
#462=CIRCLE('',#1101,3.19818925249123);
#463=CIRCLE('',#1102,3.19818925249123);
#464=CIRCLE('',#1105,4.08005426885074);
#465=CIRCLE('',#1106,4.08005426885074);
#466=CIRCLE('',#1109,1.2645);
#467=CIRCLE('',#1110,1.2645);
#468=CIRCLE('',#1113,1.2645);
#469=CIRCLE('',#1114,1.2645);
#470=CIRCLE('',#1117,1.2645);
#471=CIRCLE('',#1118,1.2645);
#472=CIRCLE('',#1121,1.2645);
#473=CIRCLE('',#1122,1.2645);
#474=CIRCLE('',#1138,0.8115);
#475=CIRCLE('',#1139,0.8115);
#476=CIRCLE('',#1142,0.8115);
#477=CIRCLE('',#1143,0.8115);
#478=CIRCLE('',#1146,0.8115);
#479=CIRCLE('',#1147,0.8115);
#480=CIRCLE('',#1150,0.8115);
#481=CIRCLE('',#1151,0.8115);
#482=CIRCLE('',#1164,1.2645);
#483=CIRCLE('',#1165,1.2645);
#484=CIRCLE('',#1167,1.2645);
#485=CIRCLE('',#1168,1.2645);
#486=CIRCLE('',#1170,1.2645);
#487=CIRCLE('',#1171,1.2645);
#488=CIRCLE('',#1173,1.2645);
#489=CIRCLE('',#1174,1.2645);
#490=VERTEX_POINT('',#1489);
#491=VERTEX_POINT('',#1491);
#492=VERTEX_POINT('',#1494);
#493=VERTEX_POINT('',#1498);
#494=VERTEX_POINT('',#1500);
#495=VERTEX_POINT('',#1503);
#496=VERTEX_POINT('',#1507);
#497=VERTEX_POINT('',#1508);
#498=VERTEX_POINT('',#1510);
#499=VERTEX_POINT('',#1512);
#500=VERTEX_POINT('',#1516);
#501=VERTEX_POINT('',#1518);
#502=VERTEX_POINT('',#1520);
#503=VERTEX_POINT('',#1522);
#504=VERTEX_POINT('',#1524);
#505=VERTEX_POINT('',#1526);
#506=VERTEX_POINT('',#1528);
#507=VERTEX_POINT('',#1530);
#508=VERTEX_POINT('',#1534);
#509=VERTEX_POINT('',#1535);
#510=VERTEX_POINT('',#1537);
#511=VERTEX_POINT('',#1539);
#512=VERTEX_POINT('',#1543);
#513=VERTEX_POINT('',#1545);
#514=VERTEX_POINT('',#1547);
#515=VERTEX_POINT('',#1549);
#516=VERTEX_POINT('',#1551);
#517=VERTEX_POINT('',#1553);
#518=VERTEX_POINT('',#1555);
#519=VERTEX_POINT('',#1557);
#520=VERTEX_POINT('',#1561);
#521=VERTEX_POINT('',#1563);
#522=VERTEX_POINT('',#1572);
#523=VERTEX_POINT('',#1574);
#524=VERTEX_POINT('',#1583);
#525=VERTEX_POINT('',#1585);
#526=VERTEX_POINT('',#1590);
#527=VERTEX_POINT('',#1592);
#528=VERTEX_POINT('',#1597);
#529=VERTEX_POINT('',#1599);
#530=VERTEX_POINT('',#1604);
#531=VERTEX_POINT('',#1606);
#532=VERTEX_POINT('',#1611);
#533=VERTEX_POINT('',#1613);
#534=VERTEX_POINT('',#1617);
#535=VERTEX_POINT('',#1619);
#536=VERTEX_POINT('',#1623);
#537=VERTEX_POINT('',#1625);
#538=VERTEX_POINT('',#1633);
#539=VERTEX_POINT('',#1634);
#540=VERTEX_POINT('',#1636);
#541=VERTEX_POINT('',#1638);
#542=VERTEX_POINT('',#1645);
#543=VERTEX_POINT('',#1649);
#544=VERTEX_POINT('',#1656);
#545=VERTEX_POINT('',#1658);
#546=VERTEX_POINT('',#1663);
#547=VERTEX_POINT('',#1665);
#548=VERTEX_POINT('',#1670);
#549=VERTEX_POINT('',#1672);
#550=VERTEX_POINT('',#1677);
#551=VERTEX_POINT('',#1679);
#552=VERTEX_POINT('',#1684);
#553=VERTEX_POINT('',#1685);
#554=VERTEX_POINT('',#1687);
#555=VERTEX_POINT('',#1689);
#556=VERTEX_POINT('',#1693);
#557=VERTEX_POINT('',#1695);
#558=VERTEX_POINT('',#1699);
#559=VERTEX_POINT('',#1701);
#560=VERTEX_POINT('',#1708);
#561=VERTEX_POINT('',#1709);
#562=VERTEX_POINT('',#1711);
#563=VERTEX_POINT('',#1713);
#564=VERTEX_POINT('',#1717);
#565=VERTEX_POINT('',#1719);
#566=VERTEX_POINT('',#1723);
#567=VERTEX_POINT('',#1725);
#568=VERTEX_POINT('',#1734);
#569=VERTEX_POINT('',#1736);
#570=VERTEX_POINT('',#1740);
#571=VERTEX_POINT('',#1742);
#572=VERTEX_POINT('',#1746);
#573=VERTEX_POINT('',#1748);
#574=VERTEX_POINT('',#1752);
#575=VERTEX_POINT('',#1754);
#576=VERTEX_POINT('',#1758);
#577=VERTEX_POINT('',#1759);
#578=VERTEX_POINT('',#1761);
#579=VERTEX_POINT('',#1763);
#580=VERTEX_POINT('',#1767);
#581=VERTEX_POINT('',#1769);
#582=VERTEX_POINT('',#1773);
#583=VERTEX_POINT('',#1775);
#584=EDGE_CURVE('',#490,#490,#454,.T.);
#585=EDGE_CURVE('',#490,#491,#246,.T.);
#586=EDGE_CURVE('',#492,#492,#455,.T.);
#587=EDGE_CURVE('',#492,#490,#247,.T.);
#588=EDGE_CURVE('',#493,#493,#456,.T.);
#589=EDGE_CURVE('',#493,#494,#248,.T.);
#590=EDGE_CURVE('',#495,#495,#457,.T.);
#591=EDGE_CURVE('',#495,#493,#249,.T.);
#592=EDGE_CURVE('',#496,#497,#458,.T.);
#593=EDGE_CURVE('',#498,#496,#250,.T.);
#594=EDGE_CURVE('',#499,#498,#459,.T.);
#595=EDGE_CURVE('',#497,#499,#251,.T.);
#596=EDGE_CURVE('',#499,#500,#252,.T.);
#597=EDGE_CURVE('',#500,#501,#253,.T.);
#598=EDGE_CURVE('',#502,#501,#254,.T.);
#599=EDGE_CURVE('',#502,#503,#255,.T.);
#600=EDGE_CURVE('',#504,#503,#256,.T.);
#601=EDGE_CURVE('',#505,#504,#257,.T.);
#602=EDGE_CURVE('',#505,#506,#258,.T.);
#603=EDGE_CURVE('',#506,#507,#259,.T.);
#604=EDGE_CURVE('',#497,#507,#260,.T.);
#605=EDGE_CURVE('',#508,#509,#460,.T.);
#606=EDGE_CURVE('',#510,#508,#261,.T.);
#607=EDGE_CURVE('',#511,#510,#461,.T.);
#608=EDGE_CURVE('',#509,#511,#262,.T.);
#609=EDGE_CURVE('',#511,#512,#263,.T.);
#610=EDGE_CURVE('',#512,#513,#264,.T.);
#611=EDGE_CURVE('',#514,#513,#265,.T.);
#612=EDGE_CURVE('',#515,#514,#266,.T.);
#613=EDGE_CURVE('',#516,#515,#267,.T.);
#614=EDGE_CURVE('',#516,#517,#268,.T.);
#615=EDGE_CURVE('',#517,#518,#269,.T.);
#616=EDGE_CURVE('',#518,#519,#270,.T.);
#617=EDGE_CURVE('',#509,#519,#271,.T.);
#618=EDGE_CURVE('',#507,#520,#462,.T.);
#619=EDGE_CURVE('',#521,#506,#463,.T.);
#620=EDGE_CURVE('',#520,#521,#272,.T.);
#621=EDGE_CURVE('',#520,#508,#273,.T.);
#622=EDGE_CURVE('',#521,#505,#274,.T.);
#623=EDGE_CURVE('',#513,#504,#275,.T.);
#624=EDGE_CURVE('',#512,#510,#276,.T.);
#625=EDGE_CURVE('',#519,#522,#464,.T.);
#626=EDGE_CURVE('',#523,#518,#465,.T.);
#627=EDGE_CURVE('',#522,#523,#277,.T.);
#628=EDGE_CURVE('',#522,#496,#278,.T.);
#629=EDGE_CURVE('',#523,#517,#279,.T.);
#630=EDGE_CURVE('',#501,#516,#280,.T.);
#631=EDGE_CURVE('',#500,#498,#281,.T.);
#632=EDGE_CURVE('',#524,#524,#466,.T.);
#633=EDGE_CURVE('',#524,#525,#282,.T.);
#634=EDGE_CURVE('',#525,#525,#467,.T.);
#635=EDGE_CURVE('',#526,#526,#468,.T.);
#636=EDGE_CURVE('',#526,#527,#283,.T.);
#637=EDGE_CURVE('',#527,#527,#469,.T.);
#638=EDGE_CURVE('',#528,#528,#470,.T.);
#639=EDGE_CURVE('',#528,#529,#284,.T.);
#640=EDGE_CURVE('',#529,#529,#471,.T.);
#641=EDGE_CURVE('',#530,#530,#472,.T.);
#642=EDGE_CURVE('',#530,#531,#285,.T.);
#643=EDGE_CURVE('',#531,#531,#473,.T.);
#644=EDGE_CURVE('',#515,#532,#286,.T.);
#645=EDGE_CURVE('',#533,#514,#287,.T.);
#646=EDGE_CURVE('',#532,#533,#288,.T.);
#647=EDGE_CURVE('',#534,#502,#289,.T.);
#648=EDGE_CURVE('',#534,#535,#290,.T.);
#649=EDGE_CURVE('',#503,#535,#291,.T.);
#650=EDGE_CURVE('',#535,#536,#292,.T.);
#651=EDGE_CURVE('',#536,#537,#293,.T.);
#652=EDGE_CURVE('',#537,#533,#294,.T.);
#653=EDGE_CURVE('',#538,#539,#295,.T.);
#654=EDGE_CURVE('',#539,#540,#296,.T.);
#655=EDGE_CURVE('',#540,#541,#297,.T.);
#656=EDGE_CURVE('',#541,#538,#298,.T.);
#657=EDGE_CURVE('',#537,#539,#299,.T.);
#658=EDGE_CURVE('',#540,#536,#300,.T.);
#659=EDGE_CURVE('',#542,#534,#301,.T.);
#660=EDGE_CURVE('',#541,#542,#302,.T.);
#661=EDGE_CURVE('',#543,#542,#303,.T.);
#662=EDGE_CURVE('',#538,#543,#304,.T.);
#663=EDGE_CURVE('',#532,#543,#305,.T.);
#664=EDGE_CURVE('',#544,#544,#474,.T.);
#665=EDGE_CURVE('',#544,#545,#306,.T.);
#666=EDGE_CURVE('',#545,#545,#475,.T.);
#667=EDGE_CURVE('',#546,#546,#476,.T.);
#668=EDGE_CURVE('',#546,#547,#307,.T.);
#669=EDGE_CURVE('',#547,#547,#477,.T.);
#670=EDGE_CURVE('',#548,#548,#478,.T.);
#671=EDGE_CURVE('',#548,#549,#308,.T.);
#672=EDGE_CURVE('',#549,#549,#479,.T.);
#673=EDGE_CURVE('',#550,#550,#480,.T.);
#674=EDGE_CURVE('',#550,#551,#309,.T.);
#675=EDGE_CURVE('',#551,#551,#481,.T.);
#676=EDGE_CURVE('',#552,#553,#310,.T.);
#677=EDGE_CURVE('',#552,#554,#311,.T.);
#678=EDGE_CURVE('',#555,#554,#312,.T.);
#679=EDGE_CURVE('',#553,#555,#313,.T.);
#680=EDGE_CURVE('',#556,#552,#314,.T.);
#681=EDGE_CURVE('',#556,#557,#315,.T.);
#682=EDGE_CURVE('',#554,#557,#316,.T.);
#683=EDGE_CURVE('',#558,#556,#317,.T.);
#684=EDGE_CURVE('',#558,#559,#318,.T.);
#685=EDGE_CURVE('',#557,#559,#319,.T.);
#686=EDGE_CURVE('',#553,#558,#320,.T.);
#687=EDGE_CURVE('',#559,#555,#321,.T.);
#688=EDGE_CURVE('',#560,#561,#322,.T.);
#689=EDGE_CURVE('',#560,#562,#323,.T.);
#690=EDGE_CURVE('',#563,#562,#324,.T.);
#691=EDGE_CURVE('',#561,#563,#325,.T.);
#692=EDGE_CURVE('',#561,#564,#326,.T.);
#693=EDGE_CURVE('',#565,#563,#327,.T.);
#694=EDGE_CURVE('',#564,#565,#328,.T.);
#695=EDGE_CURVE('',#564,#566,#329,.T.);
#696=EDGE_CURVE('',#567,#565,#330,.T.);
#697=EDGE_CURVE('',#566,#567,#331,.T.);
#698=EDGE_CURVE('',#566,#560,#332,.T.);
#699=EDGE_CURVE('',#562,#567,#333,.T.);
#700=EDGE_CURVE('',#568,#568,#482,.T.);
#701=EDGE_CURVE('',#568,#569,#334,.T.);
#702=EDGE_CURVE('',#569,#569,#483,.F.);
#703=EDGE_CURVE('',#570,#570,#484,.T.);
#704=EDGE_CURVE('',#570,#571,#335,.T.);
#705=EDGE_CURVE('',#571,#571,#485,.F.);
#706=EDGE_CURVE('',#572,#572,#486,.T.);
#707=EDGE_CURVE('',#572,#573,#336,.T.);
#708=EDGE_CURVE('',#573,#573,#487,.F.);
#709=EDGE_CURVE('',#574,#574,#488,.T.);
#710=EDGE_CURVE('',#574,#575,#337,.T.);
#711=EDGE_CURVE('',#575,#575,#489,.F.);
#712=EDGE_CURVE('',#576,#577,#338,.T.);
#713=EDGE_CURVE('',#576,#578,#339,.T.);
#714=EDGE_CURVE('',#579,#578,#340,.T.);
#715=EDGE_CURVE('',#577,#579,#341,.T.);
#716=EDGE_CURVE('',#577,#580,#342,.T.);
#717=EDGE_CURVE('',#581,#579,#343,.T.);
#718=EDGE_CURVE('',#580,#581,#344,.T.);
#719=EDGE_CURVE('',#580,#582,#345,.T.);
#720=EDGE_CURVE('',#583,#581,#346,.T.);
#721=EDGE_CURVE('',#582,#583,#347,.T.);
#722=EDGE_CURVE('',#582,#576,#348,.T.);
#723=EDGE_CURVE('',#578,#583,#349,.T.);
#724=ORIENTED_EDGE('',*,*,#584,.F.);
#725=ORIENTED_EDGE('',*,*,#585,.T.);
#726=ORIENTED_EDGE('',*,*,#585,.F.);
#727=ORIENTED_EDGE('',*,*,#586,.F.);
#728=ORIENTED_EDGE('',*,*,#587,.T.);
#729=ORIENTED_EDGE('',*,*,#584,.T.);
#730=ORIENTED_EDGE('',*,*,#587,.F.);
#731=ORIENTED_EDGE('',*,*,#588,.F.);
#732=ORIENTED_EDGE('',*,*,#589,.T.);
#733=ORIENTED_EDGE('',*,*,#589,.F.);
#734=ORIENTED_EDGE('',*,*,#590,.F.);
#735=ORIENTED_EDGE('',*,*,#591,.T.);
#736=ORIENTED_EDGE('',*,*,#588,.T.);
#737=ORIENTED_EDGE('',*,*,#591,.F.);
#738=ORIENTED_EDGE('',*,*,#592,.F.);
#739=ORIENTED_EDGE('',*,*,#593,.F.);
#740=ORIENTED_EDGE('',*,*,#594,.F.);
#741=ORIENTED_EDGE('',*,*,#595,.F.);
#742=ORIENTED_EDGE('',*,*,#595,.T.);
#743=ORIENTED_EDGE('',*,*,#596,.T.);
#744=ORIENTED_EDGE('',*,*,#597,.T.);
#745=ORIENTED_EDGE('',*,*,#598,.F.);
#746=ORIENTED_EDGE('',*,*,#599,.T.);
#747=ORIENTED_EDGE('',*,*,#600,.F.);
#748=ORIENTED_EDGE('',*,*,#601,.F.);
#749=ORIENTED_EDGE('',*,*,#602,.T.);
#750=ORIENTED_EDGE('',*,*,#603,.T.);
#751=ORIENTED_EDGE('',*,*,#604,.F.);
#752=ORIENTED_EDGE('',*,*,#605,.F.);
#753=ORIENTED_EDGE('',*,*,#606,.F.);
#754=ORIENTED_EDGE('',*,*,#607,.F.);
#755=ORIENTED_EDGE('',*,*,#608,.F.);
#756=ORIENTED_EDGE('',*,*,#608,.T.);
#757=ORIENTED_EDGE('',*,*,#609,.T.);
#758=ORIENTED_EDGE('',*,*,#610,.T.);
#759=ORIENTED_EDGE('',*,*,#611,.F.);
#760=ORIENTED_EDGE('',*,*,#612,.F.);
#761=ORIENTED_EDGE('',*,*,#613,.F.);
#762=ORIENTED_EDGE('',*,*,#614,.T.);
#763=ORIENTED_EDGE('',*,*,#615,.T.);
#764=ORIENTED_EDGE('',*,*,#616,.T.);
#765=ORIENTED_EDGE('',*,*,#617,.F.);
#766=ORIENTED_EDGE('',*,*,#618,.F.);
#767=ORIENTED_EDGE('',*,*,#603,.F.);
#768=ORIENTED_EDGE('',*,*,#619,.F.);
#769=ORIENTED_EDGE('',*,*,#620,.F.);
#770=ORIENTED_EDGE('',*,*,#606,.T.);
#771=ORIENTED_EDGE('',*,*,#621,.F.);
#772=ORIENTED_EDGE('',*,*,#620,.T.);
#773=ORIENTED_EDGE('',*,*,#622,.T.);
#774=ORIENTED_EDGE('',*,*,#601,.T.);
#775=ORIENTED_EDGE('',*,*,#623,.F.);
#776=ORIENTED_EDGE('',*,*,#610,.F.);
#777=ORIENTED_EDGE('',*,*,#624,.T.);
#778=ORIENTED_EDGE('',*,*,#625,.F.);
#779=ORIENTED_EDGE('',*,*,#616,.F.);
#780=ORIENTED_EDGE('',*,*,#626,.F.);
#781=ORIENTED_EDGE('',*,*,#627,.F.);
#782=ORIENTED_EDGE('',*,*,#593,.T.);
#783=ORIENTED_EDGE('',*,*,#628,.F.);
#784=ORIENTED_EDGE('',*,*,#627,.T.);
#785=ORIENTED_EDGE('',*,*,#629,.T.);
#786=ORIENTED_EDGE('',*,*,#614,.F.);
#787=ORIENTED_EDGE('',*,*,#630,.F.);
#788=ORIENTED_EDGE('',*,*,#597,.F.);
#789=ORIENTED_EDGE('',*,*,#631,.T.);
#790=ORIENTED_EDGE('',*,*,#632,.F.);
#791=ORIENTED_EDGE('',*,*,#633,.T.);
#792=ORIENTED_EDGE('',*,*,#634,.T.);
#793=ORIENTED_EDGE('',*,*,#633,.F.);
#794=ORIENTED_EDGE('',*,*,#634,.F.);
#795=ORIENTED_EDGE('',*,*,#635,.F.);
#796=ORIENTED_EDGE('',*,*,#636,.T.);
#797=ORIENTED_EDGE('',*,*,#637,.T.);
#798=ORIENTED_EDGE('',*,*,#636,.F.);
#799=ORIENTED_EDGE('',*,*,#637,.F.);
#800=ORIENTED_EDGE('',*,*,#638,.F.);
#801=ORIENTED_EDGE('',*,*,#639,.T.);
#802=ORIENTED_EDGE('',*,*,#640,.T.);
#803=ORIENTED_EDGE('',*,*,#639,.F.);
#804=ORIENTED_EDGE('',*,*,#640,.F.);
#805=ORIENTED_EDGE('',*,*,#641,.F.);
#806=ORIENTED_EDGE('',*,*,#642,.T.);
#807=ORIENTED_EDGE('',*,*,#643,.T.);
#808=ORIENTED_EDGE('',*,*,#642,.F.);
#809=ORIENTED_EDGE('',*,*,#643,.F.);
#810=ORIENTED_EDGE('',*,*,#644,.F.);
#811=ORIENTED_EDGE('',*,*,#612,.T.);
#812=ORIENTED_EDGE('',*,*,#645,.F.);
#813=ORIENTED_EDGE('',*,*,#646,.F.);
#814=ORIENTED_EDGE('',*,*,#647,.F.);
#815=ORIENTED_EDGE('',*,*,#648,.T.);
#816=ORIENTED_EDGE('',*,*,#649,.F.);
#817=ORIENTED_EDGE('',*,*,#599,.F.);
#818=ORIENTED_EDGE('',*,*,#600,.T.);
#819=ORIENTED_EDGE('',*,*,#649,.T.);
#820=ORIENTED_EDGE('',*,*,#650,.T.);
#821=ORIENTED_EDGE('',*,*,#651,.T.);
#822=ORIENTED_EDGE('',*,*,#652,.T.);
#823=ORIENTED_EDGE('',*,*,#645,.T.);
#824=ORIENTED_EDGE('',*,*,#611,.T.);
#825=ORIENTED_EDGE('',*,*,#623,.T.);
#826=ORIENTED_EDGE('',*,*,#631,.F.);
#827=ORIENTED_EDGE('',*,*,#596,.F.);
#828=ORIENTED_EDGE('',*,*,#594,.T.);
#829=ORIENTED_EDGE('',*,*,#586,.T.);
#830=ORIENTED_EDGE('',*,*,#602,.F.);
#831=ORIENTED_EDGE('',*,*,#622,.F.);
#832=ORIENTED_EDGE('',*,*,#619,.T.);
#833=ORIENTED_EDGE('',*,*,#615,.F.);
#834=ORIENTED_EDGE('',*,*,#629,.F.);
#835=ORIENTED_EDGE('',*,*,#626,.T.);
#836=ORIENTED_EDGE('',*,*,#590,.T.);
#837=ORIENTED_EDGE('',*,*,#624,.F.);
#838=ORIENTED_EDGE('',*,*,#609,.F.);
#839=ORIENTED_EDGE('',*,*,#607,.T.);
#840=ORIENTED_EDGE('',*,*,#653,.T.);
#841=ORIENTED_EDGE('',*,*,#654,.T.);
#842=ORIENTED_EDGE('',*,*,#655,.T.);
#843=ORIENTED_EDGE('',*,*,#656,.T.);
#844=ORIENTED_EDGE('',*,*,#617,.T.);
#845=ORIENTED_EDGE('',*,*,#625,.T.);
#846=ORIENTED_EDGE('',*,*,#628,.T.);
#847=ORIENTED_EDGE('',*,*,#592,.T.);
#848=ORIENTED_EDGE('',*,*,#604,.T.);
#849=ORIENTED_EDGE('',*,*,#618,.T.);
#850=ORIENTED_EDGE('',*,*,#621,.T.);
#851=ORIENTED_EDGE('',*,*,#605,.T.);
#852=ORIENTED_EDGE('',*,*,#641,.T.);
#853=ORIENTED_EDGE('',*,*,#638,.T.);
#854=ORIENTED_EDGE('',*,*,#635,.T.);
#855=ORIENTED_EDGE('',*,*,#632,.T.);
#856=ORIENTED_EDGE('',*,*,#657,.F.);
#857=ORIENTED_EDGE('',*,*,#651,.F.);
#858=ORIENTED_EDGE('',*,*,#658,.F.);
#859=ORIENTED_EDGE('',*,*,#654,.F.);
#860=ORIENTED_EDGE('',*,*,#658,.T.);
#861=ORIENTED_EDGE('',*,*,#650,.F.);
#862=ORIENTED_EDGE('',*,*,#648,.F.);
#863=ORIENTED_EDGE('',*,*,#659,.F.);
#864=ORIENTED_EDGE('',*,*,#660,.F.);
#865=ORIENTED_EDGE('',*,*,#655,.F.);
#866=ORIENTED_EDGE('',*,*,#660,.T.);
#867=ORIENTED_EDGE('',*,*,#661,.F.);
#868=ORIENTED_EDGE('',*,*,#662,.F.);
#869=ORIENTED_EDGE('',*,*,#656,.F.);
#870=ORIENTED_EDGE('',*,*,#662,.T.);
#871=ORIENTED_EDGE('',*,*,#663,.F.);
#872=ORIENTED_EDGE('',*,*,#646,.T.);
#873=ORIENTED_EDGE('',*,*,#652,.F.);
#874=ORIENTED_EDGE('',*,*,#657,.T.);
#875=ORIENTED_EDGE('',*,*,#653,.F.);
#876=ORIENTED_EDGE('',*,*,#644,.T.);
#877=ORIENTED_EDGE('',*,*,#663,.T.);
#878=ORIENTED_EDGE('',*,*,#661,.T.);
#879=ORIENTED_EDGE('',*,*,#659,.T.);
#880=ORIENTED_EDGE('',*,*,#647,.T.);
#881=ORIENTED_EDGE('',*,*,#598,.T.);
#882=ORIENTED_EDGE('',*,*,#630,.T.);
#883=ORIENTED_EDGE('',*,*,#613,.T.);
#884=ORIENTED_EDGE('',*,*,#664,.F.);
#885=ORIENTED_EDGE('',*,*,#665,.T.);
#886=ORIENTED_EDGE('',*,*,#666,.T.);
#887=ORIENTED_EDGE('',*,*,#665,.F.);
#888=ORIENTED_EDGE('',*,*,#666,.F.);
#889=ORIENTED_EDGE('',*,*,#667,.F.);
#890=ORIENTED_EDGE('',*,*,#668,.T.);
#891=ORIENTED_EDGE('',*,*,#669,.T.);
#892=ORIENTED_EDGE('',*,*,#668,.F.);
#893=ORIENTED_EDGE('',*,*,#669,.F.);
#894=ORIENTED_EDGE('',*,*,#670,.F.);
#895=ORIENTED_EDGE('',*,*,#671,.T.);
#896=ORIENTED_EDGE('',*,*,#672,.T.);
#897=ORIENTED_EDGE('',*,*,#671,.F.);
#898=ORIENTED_EDGE('',*,*,#672,.F.);
#899=ORIENTED_EDGE('',*,*,#673,.F.);
#900=ORIENTED_EDGE('',*,*,#674,.T.);
#901=ORIENTED_EDGE('',*,*,#675,.T.);
#902=ORIENTED_EDGE('',*,*,#674,.F.);
#903=ORIENTED_EDGE('',*,*,#675,.F.);
#904=ORIENTED_EDGE('',*,*,#676,.F.);
#905=ORIENTED_EDGE('',*,*,#677,.T.);
#906=ORIENTED_EDGE('',*,*,#678,.F.);
#907=ORIENTED_EDGE('',*,*,#679,.F.);
#908=ORIENTED_EDGE('',*,*,#680,.F.);
#909=ORIENTED_EDGE('',*,*,#681,.T.);
#910=ORIENTED_EDGE('',*,*,#682,.F.);
#911=ORIENTED_EDGE('',*,*,#677,.F.);
#912=ORIENTED_EDGE('',*,*,#683,.F.);
#913=ORIENTED_EDGE('',*,*,#684,.T.);
#914=ORIENTED_EDGE('',*,*,#685,.F.);
#915=ORIENTED_EDGE('',*,*,#681,.F.);
#916=ORIENTED_EDGE('',*,*,#686,.F.);
#917=ORIENTED_EDGE('',*,*,#679,.T.);
#918=ORIENTED_EDGE('',*,*,#687,.F.);
#919=ORIENTED_EDGE('',*,*,#684,.F.);
#920=ORIENTED_EDGE('',*,*,#688,.F.);
#921=ORIENTED_EDGE('',*,*,#689,.T.);
#922=ORIENTED_EDGE('',*,*,#690,.F.);
#923=ORIENTED_EDGE('',*,*,#691,.F.);
#924=ORIENTED_EDGE('',*,*,#692,.F.);
#925=ORIENTED_EDGE('',*,*,#691,.T.);
#926=ORIENTED_EDGE('',*,*,#693,.F.);
#927=ORIENTED_EDGE('',*,*,#694,.F.);
#928=ORIENTED_EDGE('',*,*,#695,.F.);
#929=ORIENTED_EDGE('',*,*,#694,.T.);
#930=ORIENTED_EDGE('',*,*,#696,.F.);
#931=ORIENTED_EDGE('',*,*,#697,.F.);
#932=ORIENTED_EDGE('',*,*,#698,.F.);
#933=ORIENTED_EDGE('',*,*,#697,.T.);
#934=ORIENTED_EDGE('',*,*,#699,.F.);
#935=ORIENTED_EDGE('',*,*,#689,.F.);
#936=ORIENTED_EDGE('',*,*,#699,.T.);
#937=ORIENTED_EDGE('',*,*,#696,.T.);
#938=ORIENTED_EDGE('',*,*,#693,.T.);
#939=ORIENTED_EDGE('',*,*,#690,.T.);
#940=ORIENTED_EDGE('',*,*,#676,.T.);
#941=ORIENTED_EDGE('',*,*,#686,.T.);
#942=ORIENTED_EDGE('',*,*,#683,.T.);
#943=ORIENTED_EDGE('',*,*,#680,.T.);
#944=ORIENTED_EDGE('',*,*,#673,.T.);
#945=ORIENTED_EDGE('',*,*,#670,.T.);
#946=ORIENTED_EDGE('',*,*,#667,.T.);
#947=ORIENTED_EDGE('',*,*,#664,.T.);
#948=ORIENTED_EDGE('',*,*,#698,.T.);
#949=ORIENTED_EDGE('',*,*,#688,.T.);
#950=ORIENTED_EDGE('',*,*,#692,.T.);
#951=ORIENTED_EDGE('',*,*,#695,.T.);
#952=ORIENTED_EDGE('',*,*,#678,.T.);
#953=ORIENTED_EDGE('',*,*,#682,.T.);
#954=ORIENTED_EDGE('',*,*,#685,.T.);
#955=ORIENTED_EDGE('',*,*,#687,.T.);
#956=ORIENTED_EDGE('',*,*,#700,.F.);
#957=ORIENTED_EDGE('',*,*,#701,.T.);
#958=ORIENTED_EDGE('',*,*,#702,.F.);
#959=ORIENTED_EDGE('',*,*,#701,.F.);
#960=ORIENTED_EDGE('',*,*,#703,.F.);
#961=ORIENTED_EDGE('',*,*,#704,.T.);
#962=ORIENTED_EDGE('',*,*,#705,.F.);
#963=ORIENTED_EDGE('',*,*,#704,.F.);
#964=ORIENTED_EDGE('',*,*,#706,.F.);
#965=ORIENTED_EDGE('',*,*,#707,.T.);
#966=ORIENTED_EDGE('',*,*,#708,.F.);
#967=ORIENTED_EDGE('',*,*,#707,.F.);
#968=ORIENTED_EDGE('',*,*,#709,.F.);
#969=ORIENTED_EDGE('',*,*,#710,.T.);
#970=ORIENTED_EDGE('',*,*,#711,.F.);
#971=ORIENTED_EDGE('',*,*,#710,.F.);
#972=ORIENTED_EDGE('',*,*,#712,.F.);
#973=ORIENTED_EDGE('',*,*,#713,.T.);
#974=ORIENTED_EDGE('',*,*,#714,.F.);
#975=ORIENTED_EDGE('',*,*,#715,.F.);
#976=ORIENTED_EDGE('',*,*,#716,.F.);
#977=ORIENTED_EDGE('',*,*,#715,.T.);
#978=ORIENTED_EDGE('',*,*,#717,.F.);
#979=ORIENTED_EDGE('',*,*,#718,.F.);
#980=ORIENTED_EDGE('',*,*,#719,.F.);
#981=ORIENTED_EDGE('',*,*,#718,.T.);
#982=ORIENTED_EDGE('',*,*,#720,.F.);
#983=ORIENTED_EDGE('',*,*,#721,.F.);
#984=ORIENTED_EDGE('',*,*,#722,.F.);
#985=ORIENTED_EDGE('',*,*,#721,.T.);
#986=ORIENTED_EDGE('',*,*,#723,.F.);
#987=ORIENTED_EDGE('',*,*,#713,.F.);
#988=ORIENTED_EDGE('',*,*,#723,.T.);
#989=ORIENTED_EDGE('',*,*,#720,.T.);
#990=ORIENTED_EDGE('',*,*,#717,.T.);
#991=ORIENTED_EDGE('',*,*,#714,.T.);
#992=ORIENTED_EDGE('',*,*,#700,.T.);
#993=ORIENTED_EDGE('',*,*,#703,.T.);
#994=ORIENTED_EDGE('',*,*,#706,.T.);
#995=ORIENTED_EDGE('',*,*,#709,.T.);
#996=ORIENTED_EDGE('',*,*,#722,.T.);
#997=ORIENTED_EDGE('',*,*,#712,.T.);
#998=ORIENTED_EDGE('',*,*,#716,.T.);
#999=ORIENTED_EDGE('',*,*,#719,.T.);
#1000=ORIENTED_EDGE('',*,*,#702,.T.);
#1001=ORIENTED_EDGE('',*,*,#705,.T.);
#1002=ORIENTED_EDGE('',*,*,#708,.T.);
#1003=ORIENTED_EDGE('',*,*,#711,.T.);
#1004=CONICAL_SURFACE('',#1084,0.40575,1.02974425867665);
#1005=CONICAL_SURFACE('',#1088,0.40575,1.02974425867665);
#1006=ADVANCED_FACE('',(#103),#1004,.F.);
#1007=ADVANCED_FACE('',(#104),#85,.F.);
#1008=ADVANCED_FACE('',(#105),#1005,.F.);
#1009=ADVANCED_FACE('',(#106),#86,.F.);
#1010=ADVANCED_FACE('',(#107),#87,.T.);
#1011=ADVANCED_FACE('',(#108),#44,.T.);
#1012=ADVANCED_FACE('',(#109),#88,.T.);
#1013=ADVANCED_FACE('',(#110),#45,.T.);
#1014=ADVANCED_FACE('',(#111),#89,.T.);
#1015=ADVANCED_FACE('',(#112),#46,.T.);
#1016=ADVANCED_FACE('',(#113),#90,.T.);
#1017=ADVANCED_FACE('',(#114),#47,.T.);
#1018=ADVANCED_FACE('',(#115),#91,.F.);
#1019=ADVANCED_FACE('',(#116),#48,.T.);
#1020=ADVANCED_FACE('',(#117),#92,.F.);
#1021=ADVANCED_FACE('',(#118),#49,.T.);
#1022=ADVANCED_FACE('',(#119),#93,.F.);
#1023=ADVANCED_FACE('',(#120),#50,.T.);
#1024=ADVANCED_FACE('',(#121),#94,.F.);
#1025=ADVANCED_FACE('',(#122),#51,.T.);
#1026=ADVANCED_FACE('',(#123),#52,.T.);
#1027=ADVANCED_FACE('',(#124),#53,.T.);
#1028=ADVANCED_FACE('',(#125),#54,.T.);
#1029=ADVANCED_FACE('',(#126,#23),#55,.F.);
#1030=ADVANCED_FACE('',(#127),#56,.F.);
#1031=ADVANCED_FACE('',(#128,#24),#57,.F.);
#1032=ADVANCED_FACE('',(#129),#58,.F.);
#1033=ADVANCED_FACE('',(#130,#25,#26,#27,#28,#29),#59,.T.);
#1034=ADVANCED_FACE('',(#131),#60,.T.);
#1035=ADVANCED_FACE('',(#132),#61,.T.);
#1036=ADVANCED_FACE('',(#133),#62,.T.);
#1037=ADVANCED_FACE('',(#134),#63,.T.);
#1038=ADVANCED_FACE('',(#135),#64,.T.);
#1039=ADVANCED_FACE('',(#136),#95,.F.);
#1040=ADVANCED_FACE('',(#137),#65,.T.);
#1041=ADVANCED_FACE('',(#138),#96,.F.);
#1042=ADVANCED_FACE('',(#139),#66,.T.);
#1043=ADVANCED_FACE('',(#140),#97,.F.);
#1044=ADVANCED_FACE('',(#141),#67,.T.);
#1045=ADVANCED_FACE('',(#142),#98,.F.);
#1046=ADVANCED_FACE('',(#143),#68,.T.);
#1047=ADVANCED_FACE('',(#144),#69,.F.);
#1048=ADVANCED_FACE('',(#145),#70,.F.);
#1049=ADVANCED_FACE('',(#146),#71,.F.);
#1050=ADVANCED_FACE('',(#147),#72,.F.);
#1051=ADVANCED_FACE('',(#148),#73,.T.);
#1052=ADVANCED_FACE('',(#149),#74,.T.);
#1053=ADVANCED_FACE('',(#150),#75,.T.);
#1054=ADVANCED_FACE('',(#151),#76,.T.);
#1055=ADVANCED_FACE('',(#152,#30,#31,#32,#33,#34),#77,.T.);
#1056=ADVANCED_FACE('',(#153,#35),#78,.F.);
#1057=ADVANCED_FACE('',(#154),#99,.F.);
#1058=ADVANCED_FACE('',(#155),#100,.F.);
#1059=ADVANCED_FACE('',(#156),#101,.F.);
#1060=ADVANCED_FACE('',(#157),#102,.F.);
#1061=ADVANCED_FACE('',(#158),#79,.T.);
#1062=ADVANCED_FACE('',(#159),#80,.T.);
#1063=ADVANCED_FACE('',(#160),#81,.T.);
#1064=ADVANCED_FACE('',(#161),#82,.T.);
#1065=ADVANCED_FACE('',(#162,#36,#37,#38,#39),#83,.T.);
#1066=ADVANCED_FACE('',(#163,#40,#41,#42,#43),#84,.F.);
#1067=CLOSED_SHELL('',(#1006,#1007,#1008,#1009,#1010,#1011,#1012,#1013,
#1014,#1015,#1016,#1017,#1018,#1019,#1020,#1021,#1022,#1023,#1024,#1025,
#1026,#1027,#1028,#1029,#1030,#1031,#1032,#1033,#1034,#1035,#1036,#1037,
#1038));
#1068=CLOSED_SHELL('',(#1039,#1040,#1041,#1042,#1043,#1044,#1045,#1046,
#1047,#1048,#1049,#1050,#1051,#1052,#1053,#1054,#1055,#1056));
#1069=CLOSED_SHELL('',(#1057,#1058,#1059,#1060,#1061,#1062,#1063,#1064,
#1065,#1066));
#1070=DERIVED_UNIT_ELEMENT(#1072,1.);
#1071=DERIVED_UNIT_ELEMENT(#1791,-3.);
#1072=(
MASS_UNIT()
NAMED_UNIT(*)
SI_UNIT(.KILO.,.GRAM.)
);
#1073=DERIVED_UNIT((#1070,#1071));
#1074=MEASURE_REPRESENTATION_ITEM('density measure',
POSITIVE_RATIO_MEASURE(7850.),#1073);
#1075=PROPERTY_DEFINITION_REPRESENTATION(#1080,#1077);
#1076=PROPERTY_DEFINITION_REPRESENTATION(#1081,#1078);
#1077=REPRESENTATION('material name',(#1079),#1788);
#1078=REPRESENTATION('density',(#1074),#1788);
#1079=DESCRIPTIVE_REPRESENTATION_ITEM('Steel','Steel');
#1080=PROPERTY_DEFINITION('material property','material name',#1803);
#1081=PROPERTY_DEFINITION('material property','density of part',#1803);
#1082=AXIS2_PLACEMENT_3D('',#1486,#1182,#1183);
#1083=AXIS2_PLACEMENT_3D('',#1487,#1184,#1185);
#1084=AXIS2_PLACEMENT_3D('',#1488,#1186,#1187);
#1085=AXIS2_PLACEMENT_3D('',#1490,#1188,#1189);
#1086=AXIS2_PLACEMENT_3D('',#1493,#1191,#1192);
#1087=AXIS2_PLACEMENT_3D('',#1495,#1193,#1194);
#1088=AXIS2_PLACEMENT_3D('',#1497,#1196,#1197);
#1089=AXIS2_PLACEMENT_3D('',#1499,#1198,#1199);
#1090=AXIS2_PLACEMENT_3D('',#1502,#1201,#1202);
#1091=AXIS2_PLACEMENT_3D('',#1504,#1203,#1204);
#1092=AXIS2_PLACEMENT_3D('',#1506,#1206,#1207);
#1093=AXIS2_PLACEMENT_3D('',#1509,#1208,#1209);
#1094=AXIS2_PLACEMENT_3D('',#1513,#1211,#1212);
#1095=AXIS2_PLACEMENT_3D('',#1515,#1214,#1215);
#1096=AXIS2_PLACEMENT_3D('',#1533,#1225,#1226);
#1097=AXIS2_PLACEMENT_3D('',#1536,#1227,#1228);
#1098=AXIS2_PLACEMENT_3D('',#1540,#1230,#1231);
#1099=AXIS2_PLACEMENT_3D('',#1542,#1233,#1234);
#1100=AXIS2_PLACEMENT_3D('',#1560,#1244,#1245);
#1101=AXIS2_PLACEMENT_3D('',#1562,#1246,#1247);
#1102=AXIS2_PLACEMENT_3D('',#1564,#1248,#1249);
#1103=AXIS2_PLACEMENT_3D('',#1566,#1251,#1252);
#1104=AXIS2_PLACEMENT_3D('',#1571,#1257,#1258);
#1105=AXIS2_PLACEMENT_3D('',#1573,#1259,#1260);
#1106=AXIS2_PLACEMENT_3D('',#1575,#1261,#1262);
#1107=AXIS2_PLACEMENT_3D('',#1577,#1264,#1265);
#1108=AXIS2_PLACEMENT_3D('',#1582,#1270,#1271);
#1109=AXIS2_PLACEMENT_3D('',#1584,#1272,#1273);
#1110=AXIS2_PLACEMENT_3D('',#1587,#1275,#1276);
#1111=AXIS2_PLACEMENT_3D('',#1588,#1277,#1278);
#1112=AXIS2_PLACEMENT_3D('',#1589,#1279,#1280);
#1113=AXIS2_PLACEMENT_3D('',#1591,#1281,#1282);
#1114=AXIS2_PLACEMENT_3D('',#1594,#1284,#1285);
#1115=AXIS2_PLACEMENT_3D('',#1595,#1286,#1287);
#1116=AXIS2_PLACEMENT_3D('',#1596,#1288,#1289);
#1117=AXIS2_PLACEMENT_3D('',#1598,#1290,#1291);
#1118=AXIS2_PLACEMENT_3D('',#1601,#1293,#1294);
#1119=AXIS2_PLACEMENT_3D('',#1602,#1295,#1296);
#1120=AXIS2_PLACEMENT_3D('',#1603,#1297,#1298);
#1121=AXIS2_PLACEMENT_3D('',#1605,#1299,#1300);
#1122=AXIS2_PLACEMENT_3D('',#1608,#1302,#1303);
#1123=AXIS2_PLACEMENT_3D('',#1609,#1304,#1305);
#1124=AXIS2_PLACEMENT_3D('',#1610,#1306,#1307);
#1125=AXIS2_PLACEMENT_3D('',#1616,#1311,#1312);
#1126=AXIS2_PLACEMENT_3D('',#1622,#1316,#1317);
#1127=AXIS2_PLACEMENT_3D('',#1628,#1321,#1322);
#1128=AXIS2_PLACEMENT_3D('',#1629,#1323,#1324);
#1129=AXIS2_PLACEMENT_3D('',#1630,#1325,#1326);
#1130=AXIS2_PLACEMENT_3D('',#1631,#1327,#1328);
#1131=AXIS2_PLACEMENT_3D('',#1632,#1329,#1330);
#1132=AXIS2_PLACEMENT_3D('',#1641,#1335,#1336);
#1133=AXIS2_PLACEMENT_3D('',#1644,#1339,#1340);
#1134=AXIS2_PLACEMENT_3D('',#1648,#1343,#1344);
#1135=AXIS2_PLACEMENT_3D('',#1652,#1347,#1348);
#1136=AXIS2_PLACEMENT_3D('',#1654,#1350,#1351);
#1137=AXIS2_PLACEMENT_3D('',#1655,#1352,#1353);
#1138=AXIS2_PLACEMENT_3D('',#1657,#1354,#1355);
#1139=AXIS2_PLACEMENT_3D('',#1660,#1357,#1358);
#1140=AXIS2_PLACEMENT_3D('',#1661,#1359,#1360);
#1141=AXIS2_PLACEMENT_3D('',#1662,#1361,#1362);
#1142=AXIS2_PLACEMENT_3D('',#1664,#1363,#1364);
#1143=AXIS2_PLACEMENT_3D('',#1667,#1366,#1367);
#1144=AXIS2_PLACEMENT_3D('',#1668,#1368,#1369);
#1145=AXIS2_PLACEMENT_3D('',#1669,#1370,#1371);
#1146=AXIS2_PLACEMENT_3D('',#1671,#1372,#1373);
#1147=AXIS2_PLACEMENT_3D('',#1674,#1375,#1376);
#1148=AXIS2_PLACEMENT_3D('',#1675,#1377,#1378);
#1149=AXIS2_PLACEMENT_3D('',#1676,#1379,#1380);
#1150=AXIS2_PLACEMENT_3D('',#1678,#1381,#1382);
#1151=AXIS2_PLACEMENT_3D('',#1681,#1384,#1385);
#1152=AXIS2_PLACEMENT_3D('',#1682,#1386,#1387);
#1153=AXIS2_PLACEMENT_3D('',#1683,#1388,#1389);
#1154=AXIS2_PLACEMENT_3D('',#1692,#1394,#1395);
#1155=AXIS2_PLACEMENT_3D('',#1698,#1399,#1400);
#1156=AXIS2_PLACEMENT_3D('',#1704,#1404,#1405);
#1157=AXIS2_PLACEMENT_3D('',#1707,#1408,#1409);
#1158=AXIS2_PLACEMENT_3D('',#1716,#1414,#1415);
#1159=AXIS2_PLACEMENT_3D('',#1722,#1419,#1420);
#1160=AXIS2_PLACEMENT_3D('',#1728,#1424,#1425);
#1161=AXIS2_PLACEMENT_3D('',#1731,#1428,#1429);
#1162=AXIS2_PLACEMENT_3D('',#1732,#1430,#1431);
#1163=AXIS2_PLACEMENT_3D('',#1733,#1432,#1433);
#1164=AXIS2_PLACEMENT_3D('',#1735,#1434,#1435);
#1165=AXIS2_PLACEMENT_3D('',#1738,#1437,#1438);
#1166=AXIS2_PLACEMENT_3D('',#1739,#1439,#1440);
#1167=AXIS2_PLACEMENT_3D('',#1741,#1441,#1442);
#1168=AXIS2_PLACEMENT_3D('',#1744,#1444,#1445);
#1169=AXIS2_PLACEMENT_3D('',#1745,#1446,#1447);
#1170=AXIS2_PLACEMENT_3D('',#1747,#1448,#1449);
#1171=AXIS2_PLACEMENT_3D('',#1750,#1451,#1452);
#1172=AXIS2_PLACEMENT_3D('',#1751,#1453,#1454);
#1173=AXIS2_PLACEMENT_3D('',#1753,#1455,#1456);
#1174=AXIS2_PLACEMENT_3D('',#1756,#1458,#1459);
#1175=AXIS2_PLACEMENT_3D('',#1757,#1460,#1461);
#1176=AXIS2_PLACEMENT_3D('',#1766,#1466,#1467);
#1177=AXIS2_PLACEMENT_3D('',#1772,#1471,#1472);
#1178=AXIS2_PLACEMENT_3D('',#1778,#1476,#1477);
#1179=AXIS2_PLACEMENT_3D('',#1781,#1480,#1481);
#1180=AXIS2_PLACEMENT_3D('',#1782,#1482,#1483);
#1181=AXIS2_PLACEMENT_3D('',#1783,#1484,#1485);
#1182=DIRECTION('axis',(0.,0.,1.));
#1183=DIRECTION('refdir',(1.,0.,0.));
#1184=DIRECTION('axis',(0.,0.,1.));
#1185=DIRECTION('refdir',(1.,0.,0.));
#1186=DIRECTION('center_axis',(0.,0.,1.));
#1187=DIRECTION('ref_axis',(1.,0.,0.));
#1188=DIRECTION('center_axis',(0.,0.,-1.));
#1189=DIRECTION('ref_axis',(1.,0.,0.));
#1190=DIRECTION('',(0.857167300702112,-1.04972719113862E-16,-0.515038074910054));
#1191=DIRECTION('center_axis',(0.,0.,-1.));
#1192=DIRECTION('ref_axis',(1.,0.,0.));
#1193=DIRECTION('center_axis',(0.,0.,-1.));
#1194=DIRECTION('ref_axis',(1.,0.,0.));
#1195=DIRECTION('',(0.,0.,-1.));
#1196=DIRECTION('center_axis',(0.,0.,1.));
#1197=DIRECTION('ref_axis',(1.,0.,0.));
#1198=DIRECTION('center_axis',(0.,0.,-1.));
#1199=DIRECTION('ref_axis',(1.,0.,0.));
#1200=DIRECTION('',(0.857167300702112,-1.04972719113862E-16,-0.515038074910054));
#1201=DIRECTION('center_axis',(0.,0.,-1.));
#1202=DIRECTION('ref_axis',(1.,0.,0.));
#1203=DIRECTION('center_axis',(0.,0.,-1.));
#1204=DIRECTION('ref_axis',(1.,0.,0.));
#1205=DIRECTION('',(0.,0.,-1.));
#1206=DIRECTION('center_axis',(0.,0.,1.));
#1207=DIRECTION('ref_axis',(1.,0.,0.));
#1208=DIRECTION('center_axis',(0.,0.,-1.));
#1209=DIRECTION('ref_axis',(1.,0.,0.));
#1210=DIRECTION('',(0.,0.,-1.));
#1211=DIRECTION('center_axis',(0.,0.,1.));
#1212=DIRECTION('ref_axis',(1.,0.,0.));
#1213=DIRECTION('',(0.,0.,1.));
#1214=DIRECTION('center_axis',(-1.,0.,0.));
#1215=DIRECTION('ref_axis',(0.,-1.,0.));
#1216=DIRECTION('',(0.,-1.,0.));
#1217=DIRECTION('',(0.,0.,1.));
#1218=DIRECTION('',(0.,-1.,0.));
#1219=DIRECTION('',(0.,0.,1.));
#1220=DIRECTION('',(0.,-1.,0.));
#1221=DIRECTION('',(0.,0.,1.));
#1222=DIRECTION('',(0.,-1.,0.));
#1223=DIRECTION('',(0.,0.,-1.));
#1224=DIRECTION('',(0.,1.,0.));
#1225=DIRECTION('center_axis',(0.,0.,1.));
#1226=DIRECTION('ref_axis',(1.,0.,0.));
#1227=DIRECTION('center_axis',(0.,0.,-1.));
#1228=DIRECTION('ref_axis',(1.,0.,0.));
#1229=DIRECTION('',(0.,0.,-1.));
#1230=DIRECTION('center_axis',(0.,0.,1.));
#1231=DIRECTION('ref_axis',(1.,0.,0.));
#1232=DIRECTION('',(0.,0.,1.));
#1233=DIRECTION('center_axis',(1.,0.,0.));
#1234=DIRECTION('ref_axis',(0.,1.,0.));
#1235=DIRECTION('',(0.,1.,0.));
#1236=DIRECTION('',(0.,0.,1.));
#1237=DIRECTION('',(0.,1.,0.));
#1238=DIRECTION('',(0.,0.,1.));
#1239=DIRECTION('',(0.,1.,0.));
#1240=DIRECTION('',(0.,0.,-1.));
#1241=DIRECTION('',(0.,1.,0.));
#1242=DIRECTION('',(0.,0.,-1.));
#1243=DIRECTION('',(0.,-1.,0.));
#1244=DIRECTION('center_axis',(0.,0.,1.));
#1245=DIRECTION('ref_axis',(-0.678364222179472,-0.73472578698916,0.));
#1246=DIRECTION('center_axis',(0.,0.,-1.));
#1247=DIRECTION('ref_axis',(1.,0.,0.));
#1248=DIRECTION('center_axis',(0.,0.,1.));
#1249=DIRECTION('ref_axis',(1.,0.,0.));
#1250=DIRECTION('',(0.,0.,1.));
#1251=DIRECTION('center_axis',(0.,-1.,0.));
#1252=DIRECTION('ref_axis',(1.,0.,0.));
#1253=DIRECTION('',(-1.,0.,0.));
#1254=DIRECTION('',(1.,0.,0.));
#1255=DIRECTION('',(1.,0.,0.));
#1256=DIRECTION('',(1.,0.,0.));
#1257=DIRECTION('center_axis',(0.,0.,1.));
#1258=DIRECTION('ref_axis',(1.,0.,0.));
#1259=DIRECTION('center_axis',(0.,0.,-1.));
#1260=DIRECTION('ref_axis',(1.,0.,0.));
#1261=DIRECTION('center_axis',(0.,0.,1.));
#1262=DIRECTION('ref_axis',(1.,0.,0.));
#1263=DIRECTION('',(0.,0.,1.));
#1264=DIRECTION('center_axis',(0.,1.,0.));
#1265=DIRECTION('ref_axis',(-1.,0.,0.));
#1266=DIRECTION('',(1.,0.,0.));
#1267=DIRECTION('',(-1.,0.,0.));
#1268=DIRECTION('',(-1.,0.,0.));
#1269=DIRECTION('',(-1.,0.,0.));
#1270=DIRECTION('center_axis',(0.,0.,1.));
#1271=DIRECTION('ref_axis',(1.,0.,0.));
#1272=DIRECTION('center_axis',(0.,0.,1.));
#1273=DIRECTION('ref_axis',(1.,0.,0.));
#1274=DIRECTION('',(0.,0.,1.));
#1275=DIRECTION('center_axis',(0.,0.,1.));
#1276=DIRECTION('ref_axis',(1.,0.,0.));
#1277=DIRECTION('center_axis',(0.,0.,-1.));
#1278=DIRECTION('ref_axis',(1.,0.,0.));
#1279=DIRECTION('center_axis',(0.,0.,1.));
#1280=DIRECTION('ref_axis',(1.,0.,0.));
#1281=DIRECTION('center_axis',(0.,0.,1.));
#1282=DIRECTION('ref_axis',(1.,0.,0.));
#1283=DIRECTION('',(0.,0.,1.));
#1284=DIRECTION('center_axis',(0.,0.,1.));
#1285=DIRECTION('ref_axis',(1.,0.,0.));
#1286=DIRECTION('center_axis',(0.,0.,-1.));
#1287=DIRECTION('ref_axis',(1.,0.,0.));
#1288=DIRECTION('center_axis',(0.,0.,1.));
#1289=DIRECTION('ref_axis',(1.,0.,0.));
#1290=DIRECTION('center_axis',(0.,0.,1.));
#1291=DIRECTION('ref_axis',(1.,0.,0.));
#1292=DIRECTION('',(0.,0.,1.));
#1293=DIRECTION('center_axis',(0.,0.,1.));
#1294=DIRECTION('ref_axis',(1.,0.,0.));
#1295=DIRECTION('center_axis',(0.,0.,-1.));
#1296=DIRECTION('ref_axis',(1.,0.,0.));
#1297=DIRECTION('center_axis',(0.,0.,1.));
#1298=DIRECTION('ref_axis',(1.,0.,0.));
#1299=DIRECTION('center_axis',(0.,0.,1.));
#1300=DIRECTION('ref_axis',(1.,0.,0.));
#1301=DIRECTION('',(0.,0.,1.));
#1302=DIRECTION('center_axis',(0.,0.,1.));
#1303=DIRECTION('ref_axis',(1.,0.,0.));
#1304=DIRECTION('center_axis',(0.,0.,-1.));
#1305=DIRECTION('ref_axis',(1.,0.,0.));
#1306=DIRECTION('center_axis',(0.,-1.,0.));
#1307=DIRECTION('ref_axis',(1.,0.,0.));
#1308=DIRECTION('',(-1.,0.,0.));
#1309=DIRECTION('',(1.,0.,0.));
#1310=DIRECTION('',(0.,0.,1.));
#1311=DIRECTION('center_axis',(0.,-1.,0.));
#1312=DIRECTION('ref_axis',(1.,0.,0.));
#1313=DIRECTION('',(-1.,0.,0.));
#1314=DIRECTION('',(0.,0.,1.));
#1315=DIRECTION('',(1.,0.,0.));
#1316=DIRECTION('center_axis',(0.,0.,1.));
#1317=DIRECTION('ref_axis',(1.,0.,0.));
#1318=DIRECTION('',(0.,1.,0.));
#1319=DIRECTION('',(-1.,0.,0.));
#1320=DIRECTION('',(0.,-1.,0.));
#1321=DIRECTION('center_axis',(0.,0.,-1.));
#1322=DIRECTION('ref_axis',(1.,0.,0.));
#1323=DIRECTION('center_axis',(0.,0.,-1.));
#1324=DIRECTION('ref_axis',(1.,0.,0.));
#1325=DIRECTION('center_axis',(0.,0.,-1.));
#1326=DIRECTION('ref_axis',(1.,0.,0.));
#1327=DIRECTION('center_axis',(0.,0.,-1.));
#1328=DIRECTION('ref_axis',(1.,0.,0.));
#1329=DIRECTION('center_axis',(0.,0.,-1.));
#1330=DIRECTION('ref_axis',(-1.,0.,0.));
#1331=DIRECTION('',(0.,1.,0.));
#1332=DIRECTION('',(1.,-1.03880516923991E-16,0.));
#1333=DIRECTION('',(0.,-1.,0.));
#1334=DIRECTION('',(-1.,0.,0.));
#1335=DIRECTION('center_axis',(1.03880516923991E-16,1.,0.));
#1336=DIRECTION('ref_axis',(-1.,1.03880516923991E-16,0.));
#1337=DIRECTION('',(0.,0.,-1.));
#1338=DIRECTION('',(0.,0.,1.));
#1339=DIRECTION('center_axis',(1.,0.,0.));
#1340=DIRECTION('ref_axis',(0.,1.,0.));
#1341=DIRECTION('',(0.,1.,0.));
#1342=DIRECTION('',(0.,0.,1.));
#1343=DIRECTION('center_axis',(0.,-1.,0.));
#1344=DIRECTION('ref_axis',(1.,0.,0.));
#1345=DIRECTION('',(1.,0.,0.));
#1346=DIRECTION('',(0.,0.,1.));
#1347=DIRECTION('center_axis',(-1.,0.,0.));
#1348=DIRECTION('ref_axis',(0.,-1.,0.));
#1349=DIRECTION('',(0.,-1.,0.));
#1350=DIRECTION('center_axis',(0.,0.,1.));
#1351=DIRECTION('ref_axis',(1.,0.,0.));
#1352=DIRECTION('center_axis',(0.,0.,-1.));
#1353=DIRECTION('ref_axis',(-1.,0.,0.));
#1354=DIRECTION('center_axis',(0.,0.,-1.));
#1355=DIRECTION('ref_axis',(-1.,0.,0.));
#1356=DIRECTION('',(0.,0.,-1.));
#1357=DIRECTION('center_axis',(0.,0.,-1.));
#1358=DIRECTION('ref_axis',(-1.,0.,0.));
#1359=DIRECTION('center_axis',(0.,0.,1.));
#1360=DIRECTION('ref_axis',(-1.,0.,0.));
#1361=DIRECTION('center_axis',(0.,0.,-1.));
#1362=DIRECTION('ref_axis',(-1.,0.,0.));
#1363=DIRECTION('center_axis',(0.,0.,-1.));
#1364=DIRECTION('ref_axis',(-1.,0.,0.));
#1365=DIRECTION('',(0.,0.,-1.));
#1366=DIRECTION('center_axis',(0.,0.,-1.));
#1367=DIRECTION('ref_axis',(-1.,0.,0.));
#1368=DIRECTION('center_axis',(0.,0.,1.));
#1369=DIRECTION('ref_axis',(-1.,0.,0.));
#1370=DIRECTION('center_axis',(0.,0.,-1.));
#1371=DIRECTION('ref_axis',(-1.,0.,0.));
#1372=DIRECTION('center_axis',(0.,0.,-1.));
#1373=DIRECTION('ref_axis',(-1.,0.,0.));
#1374=DIRECTION('',(0.,0.,-1.));
#1375=DIRECTION('center_axis',(0.,0.,-1.));
#1376=DIRECTION('ref_axis',(-1.,0.,0.));
#1377=DIRECTION('center_axis',(0.,0.,1.));
#1378=DIRECTION('ref_axis',(-1.,0.,0.));
#1379=DIRECTION('center_axis',(0.,0.,-1.));
#1380=DIRECTION('ref_axis',(-1.,0.,0.));
#1381=DIRECTION('center_axis',(0.,0.,-1.));
#1382=DIRECTION('ref_axis',(-1.,0.,0.));
#1383=DIRECTION('',(0.,0.,-1.));
#1384=DIRECTION('center_axis',(0.,0.,-1.));
#1385=DIRECTION('ref_axis',(-1.,0.,0.));
#1386=DIRECTION('center_axis',(0.,0.,1.));
#1387=DIRECTION('ref_axis',(-1.,0.,0.));
#1388=DIRECTION('center_axis',(1.,0.,0.));
#1389=DIRECTION('ref_axis',(0.,-1.,0.));
#1390=DIRECTION('',(0.,-1.,0.));
#1391=DIRECTION('',(0.,0.,-1.));
#1392=DIRECTION('',(0.,1.,0.));
#1393=DIRECTION('',(0.,0.,-1.));
#1394=DIRECTION('center_axis',(0.,1.,0.));
#1395=DIRECTION('ref_axis',(1.,0.,0.));
#1396=DIRECTION('',(1.,0.,0.));
#1397=DIRECTION('',(0.,0.,-1.));
#1398=DIRECTION('',(-1.,0.,0.));
#1399=DIRECTION('center_axis',(-1.,0.,0.));
#1400=DIRECTION('ref_axis',(0.,1.,0.));
#1401=DIRECTION('',(0.,1.,0.));
#1402=DIRECTION('',(0.,0.,-1.));
#1403=DIRECTION('',(0.,-1.,0.));
#1404=DIRECTION('center_axis',(0.,-1.,0.));
#1405=DIRECTION('ref_axis',(-1.,0.,0.));
#1406=DIRECTION('',(-1.,0.,0.));
#1407=DIRECTION('',(1.,0.,0.));
#1408=DIRECTION('center_axis',(-1.,0.,0.));
#1409=DIRECTION('ref_axis',(0.,-1.,0.));
#1410=DIRECTION('',(0.,1.,0.));
#1411=DIRECTION('',(0.,0.,1.));
#1412=DIRECTION('',(0.,-1.,0.));
#1413=DIRECTION('',(0.,0.,1.));
#1414=DIRECTION('center_axis',(0.,1.,0.));
#1415=DIRECTION('ref_axis',(-1.,0.,0.));
#1416=DIRECTION('',(1.,0.,0.));
#1417=DIRECTION('',(-1.,0.,0.));
#1418=DIRECTION('',(0.,0.,1.));
#1419=DIRECTION('center_axis',(1.,0.,0.));
#1420=DIRECTION('ref_axis',(0.,1.,0.));
#1421=DIRECTION('',(0.,-1.,0.));
#1422=DIRECTION('',(0.,1.,0.));
#1423=DIRECTION('',(0.,0.,1.));
#1424=DIRECTION('center_axis',(0.,-1.,0.));
#1425=DIRECTION('ref_axis',(1.,0.,0.));
#1426=DIRECTION('',(-1.,0.,0.));
#1427=DIRECTION('',(1.,0.,0.));
#1428=DIRECTION('center_axis',(0.,0.,1.));
#1429=DIRECTION('ref_axis',(1.,0.,0.));
#1430=DIRECTION('center_axis',(0.,0.,1.));
#1431=DIRECTION('ref_axis',(-1.,0.,0.));
#1432=DIRECTION('center_axis',(0.,0.,1.));
#1433=DIRECTION('ref_axis',(1.,0.,0.));
#1434=DIRECTION('center_axis',(0.,0.,1.));
#1435=DIRECTION('ref_axis',(1.,0.,0.));
#1436=DIRECTION('',(0.,0.,1.));
#1437=DIRECTION('center_axis',(0.,0.,1.));
#1438=DIRECTION('ref_axis',(1.,0.,0.));
#1439=DIRECTION('center_axis',(0.,0.,1.));
#1440=DIRECTION('ref_axis',(1.,0.,0.));
#1441=DIRECTION('center_axis',(0.,0.,1.));
#1442=DIRECTION('ref_axis',(1.,0.,0.));
#1443=DIRECTION('',(0.,0.,1.));
#1444=DIRECTION('center_axis',(0.,0.,1.));
#1445=DIRECTION('ref_axis',(1.,0.,0.));
#1446=DIRECTION('center_axis',(0.,0.,1.));
#1447=DIRECTION('ref_axis',(1.,0.,0.));
#1448=DIRECTION('center_axis',(0.,0.,1.));
#1449=DIRECTION('ref_axis',(1.,0.,0.));
#1450=DIRECTION('',(0.,0.,1.));
#1451=DIRECTION('center_axis',(0.,0.,1.));
#1452=DIRECTION('ref_axis',(1.,0.,0.));
#1453=DIRECTION('center_axis',(0.,0.,1.));
#1454=DIRECTION('ref_axis',(1.,0.,0.));
#1455=DIRECTION('center_axis',(0.,0.,1.));
#1456=DIRECTION('ref_axis',(1.,0.,0.));
#1457=DIRECTION('',(0.,0.,1.));
#1458=DIRECTION('center_axis',(0.,0.,1.));
#1459=DIRECTION('ref_axis',(1.,0.,0.));
#1460=DIRECTION('center_axis',(-1.,0.,0.));
#1461=DIRECTION('ref_axis',(0.,1.,0.));
#1462=DIRECTION('',(0.,-1.,0.));
#1463=DIRECTION('',(0.,0.,-1.));
#1464=DIRECTION('',(0.,1.,0.));
#1465=DIRECTION('',(0.,0.,-1.));
#1466=DIRECTION('center_axis',(0.,-1.,0.));
#1467=DIRECTION('ref_axis',(-1.,0.,0.));
#1468=DIRECTION('',(1.,0.,0.));
#1469=DIRECTION('',(-1.,0.,0.));
#1470=DIRECTION('',(0.,0.,-1.));
#1471=DIRECTION('center_axis',(1.,0.,0.));
#1472=DIRECTION('ref_axis',(0.,-1.,0.));
#1473=DIRECTION('',(0.,1.,0.));
#1474=DIRECTION('',(0.,-1.,0.));
#1475=DIRECTION('',(0.,0.,-1.));
#1476=DIRECTION('center_axis',(0.,1.,0.));
#1477=DIRECTION('ref_axis',(1.,0.,0.));
#1478=DIRECTION('',(-1.,0.,0.));
#1479=DIRECTION('',(1.,0.,0.));
#1480=DIRECTION('center_axis',(0.,0.,-1.));
#1481=DIRECTION('ref_axis',(1.,0.,0.));
#1482=DIRECTION('center_axis',(0.,0.,-1.));
#1483=DIRECTION('ref_axis',(1.,0.,0.));
#1484=DIRECTION('',(4.92618131907757E-16,-3.81202675902465E-17,1.));
#1485=DIRECTION('',(-1.,4.00020436070989E-16,5.21804821573825E-15));
#1486=CARTESIAN_POINT('',(0.,0.,0.));
#1487=CARTESIAN_POINT('',(0.,0.,0.));
#1488=CARTESIAN_POINT('Origin',(221.979484558105,-149.506511688232,-1.33379919617043));
#1489=CARTESIAN_POINT('',(221.167984558105,-149.506511688232,-1.08999999999999));
#1490=CARTESIAN_POINT('Origin',(221.979484558105,-149.506511688232,-1.09));
#1491=CARTESIAN_POINT('',(221.979484558105,-149.506511688232,-1.57759839234086));
#1492=CARTESIAN_POINT('',(221.573734558105,-149.506511688232,-1.33379919617043));
#1493=CARTESIAN_POINT('Origin',(221.979484558105,-149.506511688232,-0.589999999999999));
#1494=CARTESIAN_POINT('',(221.167984558105,-149.506511688232,-0.089999999999999));
#1495=CARTESIAN_POINT('Origin',(221.979484558105,-149.506511688232,-0.089999999999999));
#1496=CARTESIAN_POINT('',(221.167984558105,-149.506511688232,-0.589999999999999));
#1497=CARTESIAN_POINT('Origin',(146.025714874268,-149.473209381104,-1.83379919617043));
#1498=CARTESIAN_POINT('',(145.214214874268,-149.473209381104,-1.59));
#1499=CARTESIAN_POINT('Origin',(146.025714874268,-149.473209381104,-1.59));
#1500=CARTESIAN_POINT('',(146.025714874268,-149.473209381104,-2.07759839234086));
#1501=CARTESIAN_POINT('',(145.619964874268,-149.473209381104,-1.83379919617043));
#1502=CARTESIAN_POINT('Origin',(146.025714874268,-149.473209381104,-0.839999999999999));
#1503=CARTESIAN_POINT('',(145.214214874268,-149.473209381104,-0.089999999999999));
#1504=CARTESIAN_POINT('Origin',(146.025714874268,-149.473209381104,-0.089999999999999));
#1505=CARTESIAN_POINT('',(145.214214874268,-149.473209381104,-0.839999999999999));
#1506=CARTESIAN_POINT('Origin',(224.00000333786,-152.000002264977,-13.49));
#1507=CARTESIAN_POINT('',(219.45165229206,-151.25,-13.49));
#1508=CARTESIAN_POINT('',(223.75,-147.397014217593,-13.49));
#1509=CARTESIAN_POINT('Origin',(224.00000333786,-152.000002264977,-13.49));
#1510=CARTESIAN_POINT('',(219.45165229206,-151.25,-0.089999999999999));
#1511=CARTESIAN_POINT('',(219.45165229206,-151.25,-13.49));
#1512=CARTESIAN_POINT('',(223.75,-147.397014217593,-0.089999999999999));
#1513=CARTESIAN_POINT('Origin',(224.00000333786,-152.000002264977,-0.089999999999999));
#1514=CARTESIAN_POINT('',(223.75,-147.397014217593,-13.49));
#1515=CARTESIAN_POINT('Origin',(223.75,-42.5,1.51));
#1516=CARTESIAN_POINT('',(223.75,-151.25,-0.089999999999999));
#1517=CARTESIAN_POINT('',(223.75,-95.9117535543982,-0.089999999999999));
#1518=CARTESIAN_POINT('',(223.75,-151.25,6.51));
#1519=CARTESIAN_POINT('',(223.75,-151.25,1.51));
#1520=CARTESIAN_POINT('',(223.75,-105.058468390359,6.51));
#1521=CARTESIAN_POINT('',(223.75,-151.25,6.51));
#1522=CARTESIAN_POINT('',(223.75,-105.058468390359,11.51));
#1523=CARTESIAN_POINT('',(223.75,-105.058468390359,6.51));
#1524=CARTESIAN_POINT('',(223.75,-42.5,11.51));
#1525=CARTESIAN_POINT('',(223.75,-42.5,11.51));
#1526=CARTESIAN_POINT('',(223.75,-42.5,-0.089999999999999));
#1527=CARTESIAN_POINT('',(223.75,-42.5,1.51));
#1528=CARTESIAN_POINT('',(223.75,-46.1090068290966,-0.089999999999999));
#1529=CARTESIAN_POINT('',(223.75,-43.4245474733103,-0.089999999999999));
#1530=CARTESIAN_POINT('',(223.75,-46.1090068290966,-13.49));
#1531=CARTESIAN_POINT('',(223.75,-46.1090068290966,-13.49));
#1532=CARTESIAN_POINT('',(223.75,-151.25,-13.49));
#1533=CARTESIAN_POINT('Origin',(145.000002160668,-43.0000006407499,-13.49));
#1534=CARTESIAN_POINT('',(148.022159246214,-42.5,-13.49));
#1535=CARTESIAN_POINT('',(144.25,-45.9700058342564,-13.49));
#1536=CARTESIAN_POINT('Origin',(145.000002160668,-43.0000006407499,-13.49));
#1537=CARTESIAN_POINT('',(148.022159246214,-42.5,-0.089999999999999));
#1538=CARTESIAN_POINT('',(148.022159246214,-42.5,-13.49));
#1539=CARTESIAN_POINT('',(144.25,-45.9700058342564,-0.089999999999999));
#1540=CARTESIAN_POINT('Origin',(145.000002160668,-43.0000006407499,-0.089999999999999));
#1541=CARTESIAN_POINT('',(144.25,-45.9700058342564,-13.49));
#1542=CARTESIAN_POINT('Origin',(144.25,-151.25,1.51));
#1543=CARTESIAN_POINT('',(144.25,-42.5,-0.089999999999999));
#1544=CARTESIAN_POINT('',(144.25,-97.7658099477026,-0.089999999999999));
#1545=CARTESIAN_POINT('',(144.25,-42.5,11.51));
#1546=CARTESIAN_POINT('',(144.25,-42.5,1.51));
#1547=CARTESIAN_POINT('',(144.25,-104.993050811533,11.51));
#1548=CARTESIAN_POINT('',(144.25,-39.5,11.51));
#1549=CARTESIAN_POINT('',(144.25,-104.993050811533,6.51));
#1550=CARTESIAN_POINT('',(144.25,-104.993050811533,6.51));
#1551=CARTESIAN_POINT('',(144.25,-151.25,6.51));
#1552=CARTESIAN_POINT('',(144.25,-42.5,6.51));
#1553=CARTESIAN_POINT('',(144.25,-151.25,-0.089999999999999));
#1554=CARTESIAN_POINT('',(144.25,-151.25,1.51));
#1555=CARTESIAN_POINT('',(144.25,-147.210147984754,-0.089999999999999));
#1556=CARTESIAN_POINT('',(144.25,-150.237467020682,-0.089999999999999));
#1557=CARTESIAN_POINT('',(144.25,-147.210147984754,-13.49));
#1558=CARTESIAN_POINT('',(144.25,-147.210147984754,-13.49));
#1559=CARTESIAN_POINT('',(144.25,-42.5,-13.49));
#1560=CARTESIAN_POINT('Origin',(223.000003322959,-43.0000006407499,-13.49));
#1561=CARTESIAN_POINT('',(219.84114057602,-42.5,-13.49));
#1562=CARTESIAN_POINT('Origin',(223.000003322959,-43.0000006407499,-13.49));
#1563=CARTESIAN_POINT('',(219.84114057602,-42.5,-0.089999999999999));
#1564=CARTESIAN_POINT('Origin',(223.000003322959,-43.0000006407499,-0.089999999999999));
#1565=CARTESIAN_POINT('',(219.84114057602,-42.5,-13.49));
#1566=CARTESIAN_POINT('Origin',(144.25,-42.5,1.51));
#1567=CARTESIAN_POINT('',(223.75,-42.5,-13.49));
#1568=CARTESIAN_POINT('',(183.012953517617,-42.5,-0.089999999999999));
#1569=CARTESIAN_POINT('',(226.75,-42.5,11.51));
#1570=CARTESIAN_POINT('',(145.203310327682,-42.5,-0.089999999999999));
#1571=CARTESIAN_POINT('Origin',(144.5394467825,-151.27992235158,-13.49));
#1572=CARTESIAN_POINT('',(148.619391327423,-151.25,-13.49));
#1573=CARTESIAN_POINT('Origin',(144.5394467825,-151.27992235158,-13.49));
#1574=CARTESIAN_POINT('',(148.619391327423,-151.25,-0.089999999999999));
#1575=CARTESIAN_POINT('Origin',(144.5394467825,-151.27992235158,-0.089999999999999));
#1576=CARTESIAN_POINT('',(148.619391327423,-151.25,-13.49));
#1577=CARTESIAN_POINT('Origin',(223.75,-151.25,1.51));
#1578=CARTESIAN_POINT('',(144.25,-151.25,-13.49));
#1579=CARTESIAN_POINT('',(185.092347831856,-151.25,-0.089999999999999));
#1580=CARTESIAN_POINT('',(144.25,-151.25,6.51));
#1581=CARTESIAN_POINT('',(222.675413073015,-151.25,-0.089999999999999));
#1582=CARTESIAN_POINT('Origin',(143.500002138317,-152.000002264977,-16.49));
#1583=CARTESIAN_POINT('',(142.235502138317,-152.000002264977,-13.49));
#1584=CARTESIAN_POINT('Origin',(143.500002138317,-152.000002264977,-13.49));
#1585=CARTESIAN_POINT('',(142.235502138317,-152.000002264977,-6.49));
#1586=CARTESIAN_POINT('',(142.235502138317,-152.000002264977,-16.49));
#1587=CARTESIAN_POINT('Origin',(143.500002138317,-152.000002264977,-6.49));
#1588=CARTESIAN_POINT('Origin',(143.500002138317,-152.000002264977,-6.49));
#1589=CARTESIAN_POINT('Origin',(145.000002160668,-43.0000006407499,-16.49));
#1590=CARTESIAN_POINT('',(143.735502160668,-43.0000006407499,-13.49));
#1591=CARTESIAN_POINT('Origin',(145.000002160668,-43.0000006407499,-13.49));
#1592=CARTESIAN_POINT('',(143.735502160668,-43.0000006407499,-6.49));
#1593=CARTESIAN_POINT('',(143.735502160668,-43.0000006407499,-16.49));
#1594=CARTESIAN_POINT('Origin',(145.000002160668,-43.0000006407499,-6.49));
#1595=CARTESIAN_POINT('Origin',(145.000002160668,-43.0000006407499,-6.49));
#1596=CARTESIAN_POINT('Origin',(224.00000333786,-152.000002264977,-16.49));
#1597=CARTESIAN_POINT('',(222.73550333786,-152.000002264977,-13.49));
#1598=CARTESIAN_POINT('Origin',(224.00000333786,-152.000002264977,-13.49));
#1599=CARTESIAN_POINT('',(222.73550333786,-152.000002264977,-6.49));
#1600=CARTESIAN_POINT('',(222.73550333786,-152.000002264977,-16.49));
#1601=CARTESIAN_POINT('Origin',(224.00000333786,-152.000002264977,-6.49));
#1602=CARTESIAN_POINT('Origin',(224.00000333786,-152.000002264977,-6.49));
#1603=CARTESIAN_POINT('Origin',(223.000003322959,-43.0000006407499,-16.49));
#1604=CARTESIAN_POINT('',(221.735503322959,-43.0000006407499,-13.49));
#1605=CARTESIAN_POINT('Origin',(223.000003322959,-43.0000006407499,-13.49));
#1606=CARTESIAN_POINT('',(221.735503322959,-43.0000006407499,-6.49));
#1607=CARTESIAN_POINT('',(221.735503322959,-43.0000006407499,-16.49));
#1608=CARTESIAN_POINT('Origin',(223.000003322959,-43.0000006407499,-6.49));
#1609=CARTESIAN_POINT('Origin',(223.000003322959,-43.0000006407499,-6.49));
#1610=CARTESIAN_POINT('Origin',(141.25,-104.993050811533,6.51));
#1611=CARTESIAN_POINT('',(141.25,-104.993050811533,6.51));
#1612=CARTESIAN_POINT('',(162.625,-104.993050811533,6.51));
#1613=CARTESIAN_POINT('',(141.25,-104.993050811533,11.51));
#1614=CARTESIAN_POINT('',(144.25,-104.993050811533,11.51));
#1615=CARTESIAN_POINT('',(141.25,-104.993050811533,6.51));
#1616=CARTESIAN_POINT('Origin',(223.75,-105.058468390359,6.51));
#1617=CARTESIAN_POINT('',(226.75,-105.058468390359,6.51));
#1618=CARTESIAN_POINT('',(203.875,-105.058468390359,6.51));
#1619=CARTESIAN_POINT('',(226.75,-105.058468390359,11.51));
#1620=CARTESIAN_POINT('',(226.75,-105.058468390359,6.51));
#1621=CARTESIAN_POINT('',(223.75,-105.058468390359,11.51));
#1622=CARTESIAN_POINT('Origin',(184.,-72.2792341951797,11.51));
#1623=CARTESIAN_POINT('',(226.75,-39.5,11.51));
#1624=CARTESIAN_POINT('',(226.75,-105.058468390359,11.51));
#1625=CARTESIAN_POINT('',(141.25,-39.5,11.51));
#1626=CARTESIAN_POINT('',(144.25,-39.5,11.51));
#1627=CARTESIAN_POINT('',(141.25,-104.993050811533,11.51));
#1628=CARTESIAN_POINT('Origin',(222.5,-150.,-0.089999999999999));
#1629=CARTESIAN_POINT('Origin',(222.5,-43.75,-0.089999999999999));
#1630=CARTESIAN_POINT('Origin',(145.5,-150.,-0.089999999999999));
#1631=CARTESIAN_POINT('Origin',(145.5,-43.75,-0.089999999999999));
#1632=CARTESIAN_POINT('Origin',(184.,-96.875,-13.49));
#1633=CARTESIAN_POINT('',(141.25,-154.25,-13.49));
#1634=CARTESIAN_POINT('',(141.25,-39.5,-13.49));
#1635=CARTESIAN_POINT('',(141.25,-39.5,-13.49));
#1636=CARTESIAN_POINT('',(226.75,-39.5,-13.49));
#1637=CARTESIAN_POINT('',(226.75,-39.5,-13.49));
#1638=CARTESIAN_POINT('',(226.75,-154.25,-13.49));
#1639=CARTESIAN_POINT('',(226.75,-154.25,-13.49));
#1640=CARTESIAN_POINT('',(141.25,-154.25,-13.49));
#1641=CARTESIAN_POINT('Origin',(226.75,-39.5,1.51));
#1642=CARTESIAN_POINT('',(141.25,-39.5,1.51));
#1643=CARTESIAN_POINT('',(226.75,-39.5,1.51));
#1644=CARTESIAN_POINT('Origin',(226.75,-154.25,1.51));
#1645=CARTESIAN_POINT('',(226.75,-154.25,6.51));
#1646=CARTESIAN_POINT('',(226.75,-154.25,6.51));
#1647=CARTESIAN_POINT('',(226.75,-154.25,1.51));
#1648=CARTESIAN_POINT('Origin',(141.25,-154.25,1.51));
#1649=CARTESIAN_POINT('',(141.25,-154.25,6.51));
#1650=CARTESIAN_POINT('',(141.25,-154.25,6.51));
#1651=CARTESIAN_POINT('',(141.25,-154.25,1.51));
#1652=CARTESIAN_POINT('Origin',(141.25,-39.5,1.51));
#1653=CARTESIAN_POINT('',(141.25,-39.5,6.51));
#1654=CARTESIAN_POINT('Origin',(184.,-96.875,6.51));
#1655=CARTESIAN_POINT('Origin',(206.50000307709,-88.0000013113022,14.51));
#1656=CARTESIAN_POINT('',(207.31150307709,-88.0000013113022,14.51));
#1657=CARTESIAN_POINT('Origin',(206.50000307709,-88.0000013113022,14.51));
#1658=CARTESIAN_POINT('',(207.31150307709,-88.0000013113022,12.01));
#1659=CARTESIAN_POINT('',(207.31150307709,-88.0000013113022,14.51));
#1660=CARTESIAN_POINT('Origin',(206.50000307709,-88.0000013113022,12.01));
#1661=CARTESIAN_POINT('Origin',(206.50000307709,-88.0000013113022,12.01));
#1662=CARTESIAN_POINT('Origin',(163.50000243634,-88.0000013113022,14.51));
#1663=CARTESIAN_POINT('',(164.31150243634,-88.0000013113022,14.51));
#1664=CARTESIAN_POINT('Origin',(163.50000243634,-88.0000013113022,14.51));
#1665=CARTESIAN_POINT('',(164.31150243634,-88.0000013113022,12.01));
#1666=CARTESIAN_POINT('',(164.31150243634,-88.0000013113022,14.51));
#1667=CARTESIAN_POINT('Origin',(163.50000243634,-88.0000013113022,12.01));
#1668=CARTESIAN_POINT('Origin',(163.50000243634,-88.0000013113022,12.01));
#1669=CARTESIAN_POINT('Origin',(206.50000307709,-62.000000923872,14.51));
#1670=CARTESIAN_POINT('',(207.31150307709,-62.000000923872,14.51));
#1671=CARTESIAN_POINT('Origin',(206.50000307709,-62.000000923872,14.51));
#1672=CARTESIAN_POINT('',(207.31150307709,-62.000000923872,12.01));
#1673=CARTESIAN_POINT('',(207.31150307709,-62.000000923872,14.51));
#1674=CARTESIAN_POINT('Origin',(206.50000307709,-62.000000923872,12.01));
#1675=CARTESIAN_POINT('Origin',(206.50000307709,-62.000000923872,12.01));
#1676=CARTESIAN_POINT('Origin',(163.50000243634,-62.000000923872,14.51));
#1677=CARTESIAN_POINT('',(164.31150243634,-62.000000923872,14.51));
#1678=CARTESIAN_POINT('Origin',(163.50000243634,-62.000000923872,14.51));
#1679=CARTESIAN_POINT('',(164.31150243634,-62.000000923872,12.01));
#1680=CARTESIAN_POINT('',(164.31150243634,-62.000000923872,14.51));
#1681=CARTESIAN_POINT('Origin',(163.50000243634,-62.000000923872,12.01));
#1682=CARTESIAN_POINT('Origin',(163.50000243634,-62.000000923872,12.01));
#1683=CARTESIAN_POINT('Origin',(200.,-50.,14.51));
#1684=CARTESIAN_POINT('',(200.,-50.,14.51));
#1685=CARTESIAN_POINT('',(200.,-55.,14.51));
#1686=CARTESIAN_POINT('',(200.,-61.1396170975899,14.51));
#1687=CARTESIAN_POINT('',(200.,-50.,11.51));
#1688=CARTESIAN_POINT('',(200.,-50.,14.51));
#1689=CARTESIAN_POINT('',(200.,-55.,11.51));
#1690=CARTESIAN_POINT('',(200.,-61.1396170975899,11.51));
#1691=CARTESIAN_POINT('',(200.,-55.,14.51));
#1692=CARTESIAN_POINT('Origin',(165.,-50.,14.51));
#1693=CARTESIAN_POINT('',(165.,-50.,14.51));
#1694=CARTESIAN_POINT('',(-75.5,-50.,14.51));
#1695=CARTESIAN_POINT('',(165.,-50.,11.51));
#1696=CARTESIAN_POINT('',(165.,-50.,14.51));
#1697=CARTESIAN_POINT('',(174.5,-50.,11.51));
#1698=CARTESIAN_POINT('Origin',(165.,-55.,14.51));
#1699=CARTESIAN_POINT('',(165.,-55.,14.51));
#1700=CARTESIAN_POINT('',(165.,-63.6396170975899,14.51));
#1701=CARTESIAN_POINT('',(165.,-55.,11.51));
#1702=CARTESIAN_POINT('',(165.,-55.,14.51));
#1703=CARTESIAN_POINT('',(165.,-63.6396170975899,11.51));
#1704=CARTESIAN_POINT('Origin',(200.,-55.,14.51));
#1705=CARTESIAN_POINT('',(-58.,-55.,14.51));
#1706=CARTESIAN_POINT('',(192.,-55.,11.51));
#1707=CARTESIAN_POINT('Origin',(141.25,-39.5,11.51));
#1708=CARTESIAN_POINT('',(141.25,-105.058468390359,11.51));
#1709=CARTESIAN_POINT('',(141.25,-39.5,11.51));
#1710=CARTESIAN_POINT('',(141.25,-105.058468390359,11.51));
#1711=CARTESIAN_POINT('',(141.25,-105.058468390359,14.51));
#1712=CARTESIAN_POINT('',(141.25,-105.058468390359,11.51));
#1713=CARTESIAN_POINT('',(141.25,-39.5,14.51));
#1714=CARTESIAN_POINT('',(141.25,-105.058468390359,14.51));
#1715=CARTESIAN_POINT('',(141.25,-39.5,11.51));
#1716=CARTESIAN_POINT('Origin',(226.75,-39.5,11.51));
#1717=CARTESIAN_POINT('',(226.75,-39.5,11.51));
#1718=CARTESIAN_POINT('',(141.25,-39.5,11.51));
#1719=CARTESIAN_POINT('',(226.75,-39.5,14.51));
#1720=CARTESIAN_POINT('',(-108.75,-39.5,14.51));
#1721=CARTESIAN_POINT('',(226.75,-39.5,11.51));
#1722=CARTESIAN_POINT('Origin',(226.75,-105.058468390359,11.51));
#1723=CARTESIAN_POINT('',(226.75,-105.058468390359,11.51));
#1724=CARTESIAN_POINT('',(226.75,-39.5,11.51));
#1725=CARTESIAN_POINT('',(226.75,-105.058468390359,14.51));
#1726=CARTESIAN_POINT('',(226.75,-39.5,14.51));
#1727=CARTESIAN_POINT('',(226.75,-105.058468390359,11.51));
#1728=CARTESIAN_POINT('Origin',(141.25,-105.058468390359,11.51));
#1729=CARTESIAN_POINT('',(226.75,-105.058468390359,11.51));
#1730=CARTESIAN_POINT('',(-23.25,-105.058468390359,14.51));
#1731=CARTESIAN_POINT('Origin',(-66.,-72.2792341951797,14.51));
#1732=CARTESIAN_POINT('Origin',(184.,-72.2792341951797,11.51));
#1733=CARTESIAN_POINT('Origin',(43.5000021383166,-152.000002264977,-16.49));
#1734=CARTESIAN_POINT('',(42.2355021383166,-152.000002264977,-16.49));
#1735=CARTESIAN_POINT('Origin',(43.5000021383166,-152.000002264977,-16.49));
#1736=CARTESIAN_POINT('',(42.2355021383166,-152.000002264977,-13.49));
#1737=CARTESIAN_POINT('',(42.2355021383166,-152.000002264977,-16.49));
#1738=CARTESIAN_POINT('Origin',(43.5000021383166,-152.000002264977,-13.49));
#1739=CARTESIAN_POINT('Origin',(45.0000021606684,-43.0000006407499,-16.49));
#1740=CARTESIAN_POINT('',(43.7355021606684,-43.0000006407499,-16.49));
#1741=CARTESIAN_POINT('Origin',(45.0000021606684,-43.0000006407499,-16.49));
#1742=CARTESIAN_POINT('',(43.7355021606684,-43.0000006407499,-13.49));
#1743=CARTESIAN_POINT('',(43.7355021606684,-43.0000006407499,-16.49));
#1744=CARTESIAN_POINT('Origin',(45.0000021606684,-43.0000006407499,-13.49));
#1745=CARTESIAN_POINT('Origin',(124.00000333786,-152.000002264977,-16.49));
#1746=CARTESIAN_POINT('',(122.73550333786,-152.000002264977,-16.49));
#1747=CARTESIAN_POINT('Origin',(124.00000333786,-152.000002264977,-16.49));
#1748=CARTESIAN_POINT('',(122.73550333786,-152.000002264977,-13.49));
#1749=CARTESIAN_POINT('',(122.73550333786,-152.000002264977,-16.49));
#1750=CARTESIAN_POINT('Origin',(124.00000333786,-152.000002264977,-13.49));
#1751=CARTESIAN_POINT('Origin',(123.000003322959,-43.0000006407499,-16.49));
#1752=CARTESIAN_POINT('',(121.735503322959,-43.0000006407499,-16.49));
#1753=CARTESIAN_POINT('Origin',(123.000003322959,-43.0000006407499,-16.49));
#1754=CARTESIAN_POINT('',(121.735503322959,-43.0000006407499,-13.49));
#1755=CARTESIAN_POINT('',(121.735503322959,-43.0000006407499,-16.49));
#1756=CARTESIAN_POINT('Origin',(123.000003322959,-43.0000006407499,-13.49));
#1757=CARTESIAN_POINT('Origin',(41.25,-154.25,-13.49));
#1758=CARTESIAN_POINT('',(41.25,-39.5,-13.49));
#1759=CARTESIAN_POINT('',(41.25,-154.25,-13.49));
#1760=CARTESIAN_POINT('',(41.25,-39.5,-13.49));
#1761=CARTESIAN_POINT('',(41.25,-39.5,-16.49));
#1762=CARTESIAN_POINT('',(41.25,-39.5,-13.49));
#1763=CARTESIAN_POINT('',(41.25,-154.25,-16.49));
#1764=CARTESIAN_POINT('',(41.25,-39.5,-16.49));
#1765=CARTESIAN_POINT('',(41.25,-154.25,-13.49));
#1766=CARTESIAN_POINT('Origin',(126.75,-154.25,-13.49));
#1767=CARTESIAN_POINT('',(126.75,-154.25,-13.49));
#1768=CARTESIAN_POINT('',(41.25,-154.25,-13.49));
#1769=CARTESIAN_POINT('',(126.75,-154.25,-16.49));
#1770=CARTESIAN_POINT('',(261.25,-154.25,-16.49));
#1771=CARTESIAN_POINT('',(126.75,-154.25,-13.49));
#1772=CARTESIAN_POINT('Origin',(126.75,-39.5,-13.49));
#1773=CARTESIAN_POINT('',(126.75,-39.5,-13.49));
#1774=CARTESIAN_POINT('',(126.75,-154.25,-13.49));
#1775=CARTESIAN_POINT('',(126.75,-39.5,-16.49));
#1776=CARTESIAN_POINT('',(126.75,-154.25,-16.49));
#1777=CARTESIAN_POINT('',(126.75,-39.5,-13.49));
#1778=CARTESIAN_POINT('Origin',(41.25,-39.5,-13.49));
#1779=CARTESIAN_POINT('',(126.75,-39.5,-13.49));
#1780=CARTESIAN_POINT('',(346.75,-39.5,-16.49));
#1781=CARTESIAN_POINT('Origin',(304.,-96.875,-16.49));
#1782=CARTESIAN_POINT('Origin',(84.,-96.875,-13.49));
#1783=CARTESIAN_POINT('',(98.0491820003299,-73.4479290734488,62.4196057141913));
#1784=UNCERTAINTY_MEASURE_WITH_UNIT(LENGTH_MEASURE(0.01),#1790,
'DISTANCE_ACCURACY_VALUE',
'Maximum model space distance between geometric entities at asserted c
onnectivities');
#1785=UNCERTAINTY_MEASURE_WITH_UNIT(LENGTH_MEASURE(0.01),#1790,
'DISTANCE_ACCURACY_VALUE',
'Maximum model space distance between geometric entities at asserted c
onnectivities');
#1786=UNCERTAINTY_MEASURE_WITH_UNIT(LENGTH_MEASURE(0.01),#1790,
'DISTANCE_ACCURACY_VALUE',
'Maximum model space distance between geometric entities at asserted c
onnectivities');
#1787=(
GEOMETRIC_REPRESENTATION_CONTEXT(3)
GLOBAL_UNCERTAINTY_ASSIGNED_CONTEXT((#1784))
GLOBAL_UNIT_ASSIGNED_CONTEXT((#1790,#1792,#1793))
REPRESENTATION_CONTEXT('','3D')
);
#1788=(
GEOMETRIC_REPRESENTATION_CONTEXT(3)
GLOBAL_UNCERTAINTY_ASSIGNED_CONTEXT((#1785))
GLOBAL_UNIT_ASSIGNED_CONTEXT((#1790,#1792,#1793))
REPRESENTATION_CONTEXT('','3D')
);
#1789=(
GEOMETRIC_REPRESENTATION_CONTEXT(3)
GLOBAL_UNCERTAINTY_ASSIGNED_CONTEXT((#1786))
GLOBAL_UNIT_ASSIGNED_CONTEXT((#1790,#1792,#1793))
REPRESENTATION_CONTEXT('','3D')
);
#1790=(
LENGTH_UNIT()
NAMED_UNIT(*)
SI_UNIT(.MILLI.,.METRE.)
);
#1791=(
LENGTH_UNIT()
NAMED_UNIT(*)
SI_UNIT($,.METRE.)
);
#1792=(
NAMED_UNIT(*)
PLANE_ANGLE_UNIT()
SI_UNIT($,.RADIAN.)
);
#1793=(
NAMED_UNIT(*)
SI_UNIT($,.STERADIAN.)
SOLID_ANGLE_UNIT()
);
#1794=SHAPE_DEFINITION_REPRESENTATION(#1796,#1799);
#1795=SHAPE_DEFINITION_REPRESENTATION(#1797,#1800);
#1796=PRODUCT_DEFINITION_SHAPE('',$,#1802);
#1797=PRODUCT_DEFINITION_SHAPE('',$,#1803);
#1798=PRODUCT_DEFINITION_SHAPE($,$,#16);
#1799=SHAPE_REPRESENTATION('',(#1082,#1181),#1787);
#1800=SHAPE_REPRESENTATION('',(#1083),#1788);
#1801=PRODUCT_DEFINITION_CONTEXT('part definition',#1809,'design');
#1802=PRODUCT_DEFINITION('2026-09-04-11-37-38-381','projectt',#1804,#1801);
#1803=PRODUCT_DEFINITION('2026-09-04-11-37-38-382',
'PinHeader_2x10_P2.54mm_Vertical',#1805,#1801);
#1804=PRODUCT_DEFINITION_FORMATION('',$,#1811);
#1805=PRODUCT_DEFINITION_FORMATION('',$,#1812);
#1806=PRODUCT_RELATED_PRODUCT_CATEGORY('projectt','projectt',(#1811));
#1807=PRODUCT_RELATED_PRODUCT_CATEGORY(
'PinHeader_2x10_P2.54mm_Vertical','PinHeader_2x10_P2.54mm_Vertical',(#1812));
#1808=APPLICATION_PROTOCOL_DEFINITION('international standard',
'automotive_design',2009,#1809);
#1809=APPLICATION_CONTEXT(
'Core Data for Automotive Mechanical Design Process');
#1810=PRODUCT_CONTEXT('part definition',#1809,'mechanical');
#1811=PRODUCT('2026-09-04-11-37-38-381','projectt',
'KiCad electronic assembly',(#1810));
#1812=PRODUCT('2026-09-04-11-37-38-382',
'PinHeader_2x10_P2.54mm_Vertical',$,(#1810));
#1813=PRESENTATION_STYLE_ASSIGNMENT((#1814));
#1814=SURFACE_STYLE_USAGE(.BOTH.,#1815);
#1815=SURFACE_SIDE_STYLE('',(#1816));
#1816=SURFACE_STYLE_FILL_AREA(#1817);
#1817=FILL_AREA_STYLE('Steel - Satin',(#1818));
#1818=FILL_AREA_STYLE_COLOUR('Steel - Satin',#1819);
#1819=COLOUR_RGB('Steel - Satin',0.627450980392157,0.627450980392157,0.627450980392157);
ENDSEC;
END-ISO-10303-21;
